<svg class="tikz-render-svg" xmlns="http://www.w3.org/2000/svg" viewBox="-52.343355 -309 749.543355 372.481306">
  <rect class="tikz-background" x="-52.343355" y="-309" width="749.543355" height="372.481306" fill="white" />
  <path d="M -30 0 L 555 0 L 555 -309 L -30 -309 Z" stroke="none" fill="none" stroke-width="1.4058392143307286" />
  <path d="M 0 0 L 0 -309" stroke="rgb(191 191 191)" fill="none" stroke-width="1.4058392143307286" stroke-linecap="butt" stroke-linejoin="miter" />
  <path d="M 166.7 0 L 166.7 -309" stroke="rgb(191 191 191)" fill="none" stroke-width="1.4058392143307286" stroke-linecap="butt" stroke-linejoin="miter" />
  <path d="M 333.3 0 L 333.3 -309" stroke="rgb(191 191 191)" fill="none" stroke-width="1.4058392143307286" stroke-linecap="butt" stroke-linejoin="miter" />
  <path d="M 500 0 L 500 -309" stroke="rgb(191 191 191)" fill="none" stroke-width="1.4058392143307286" stroke-linecap="butt" stroke-linejoin="miter" />
  <path d="M 0 0 L 500 0" stroke="rgb(191 191 191)" fill="none" stroke-width="1.4058392143307286" stroke-linecap="butt" stroke-linejoin="miter" />
  <path d="M 0 -118.8 L 500 -118.8" stroke="rgb(191 191 191)" fill="none" stroke-width="1.4058392143307286" stroke-linecap="butt" stroke-linejoin="miter" />
  <path d="M 0 -237.7 L 500 -237.7" stroke="rgb(191 191 191)" fill="none" stroke-width="1.4058392143307286" stroke-linecap="butt" stroke-linejoin="miter" />
  <path d="M 0 17.5 L 500 17.5" stroke="rgb(128 128 128)" fill="none" stroke-width="1.4058392143307286" stroke-linecap="butt" stroke-linejoin="miter" />
  <path d="M -17.5 0 L -17.5 -309" stroke="rgb(128 128 128)" fill="none" stroke-width="1.4058392143307286" stroke-linecap="butt" stroke-linejoin="miter" />
  <path d="M 0 0 L 500 0" stroke="rgb(191 191 191)" fill="none" stroke-width="1.4058392143307286" stroke-linecap="square" stroke-linejoin="miter" />
  <path d="M 0 -309 L 500 -309" stroke="rgb(191 191 191)" fill="none" stroke-width="1.4058392143307286" stroke-linecap="square" stroke-linejoin="miter" />
  <path d="M 0 0 L 0 -309" stroke="rgb(191 191 191)" fill="none" stroke-width="1.4058392143307286" stroke-linecap="square" stroke-linejoin="miter" />
  <path d="M 500 0 L 500 -309" stroke="rgb(191 191 191)" fill="none" stroke-width="1.4058392143307286" stroke-linecap="square" stroke-linejoin="miter" />
  <path d="M 0 17.5 L 0 24.5" stroke="rgb(128 128 128)" fill="none" stroke-width="1.4058392143307286" stroke-linecap="butt" stroke-linejoin="miter" />
  <text x="0" y="47.314155" fill="black" text-anchor="middle" dominant-baseline="middle" xml:space="preserve" font-size="28.116784" font-family="KaTeX_Main, 'Times New Roman', Times, serif">0</text>
  <path d="M 166.7 17.5 L 166.7 24.5" stroke="rgb(128 128 128)" fill="none" stroke-width="1.4058392143307286" stroke-linecap="butt" stroke-linejoin="miter" />
  <text x="166.7" y="47.314155" fill="black" text-anchor="middle" dominant-baseline="middle" xml:space="preserve" font-size="28.116784" font-family="KaTeX_Main, 'Times New Roman', Times, serif">1</text>
  <path d="M 333.3 17.5 L 333.3 24.5" stroke="rgb(128 128 128)" fill="none" stroke-width="1.4058392143307286" stroke-linecap="butt" stroke-linejoin="miter" />
  <text x="333.3" y="47.314155" fill="black" text-anchor="middle" dominant-baseline="middle" xml:space="preserve" font-size="28.116784" font-family="KaTeX_Main, 'Times New Roman', Times, serif">2</text>
  <path d="M 500 17.5 L 500 24.5" stroke="rgb(128 128 128)" fill="none" stroke-width="1.4058392143307286" stroke-linecap="butt" stroke-linejoin="miter" />
  <text x="500" y="47.314155" fill="black" text-anchor="middle" dominant-baseline="middle" xml:space="preserve" font-size="28.116784" font-family="KaTeX_Main, 'Times New Roman', Times, serif">3</text>
  <path d="M -17.5 0 L -24.5 0" stroke="rgb(128 128 128)" fill="none" stroke-width="1.4058392143307286" stroke-linecap="butt" stroke-linejoin="miter" />
  <text x="-45.314155" y="0" fill="black" text-anchor="middle" dominant-baseline="middle" xml:space="preserve" font-size="28.116784" font-family="KaTeX_Main, 'Times New Roman', Times, serif">0</text>
  <path d="M -17.5 -118.8 L -24.5 -118.8" stroke="rgb(128 128 128)" fill="none" stroke-width="1.4058392143307286" stroke-linecap="butt" stroke-linejoin="miter" />
  <text x="-45.314155" y="-118.8" fill="black" text-anchor="middle" dominant-baseline="middle" xml:space="preserve" font-size="28.116784" font-family="KaTeX_Main, 'Times New Roman', Times, serif">1</text>
  <path d="M -17.5 -237.7 L -24.5 -237.7" stroke="rgb(128 128 128)" fill="none" stroke-width="1.4058392143307286" stroke-linecap="butt" stroke-linejoin="miter" />
  <text x="-45.314155" y="-237.7" fill="black" text-anchor="middle" dominant-baseline="middle" xml:space="preserve" font-size="28.116784" font-family="KaTeX_Main, 'Times New Roman', Times, serif">2</text>
  <path d="M 0 0 C 0 0 120.4 -42.9 166.7 -59.4 C 212.9 -75.9 287.1 -104 333.3 -118.8 C 379.6 -133.7 500 -166.4 500 -166.4" stroke="blue" fill="none" stroke-width="2.108758821496093" stroke-linecap="butt" stroke-linejoin="miter" />
  <path d="M 0 -118.8 L 166.7 -166.4 L 333.3 -249.6 L 500 -309" stroke="red" fill="none" stroke-width="2.108758821496093" stroke-dasharray="10.543794107480464 7.029196071653643" stroke-linecap="butt" stroke-linejoin="miter" />
  <path d="M 552.5 -139.8 C 555.5 -140.7 561.3 -145.9 570.2 -145.1 C 578.9 -144.2 596.6 -135.4 605.4 -134.6 C 614.2 -133.7 620.1 -139 623 -139.8" stroke="blue" fill="none" stroke-width="2.811678428661457" stroke-linecap="butt" stroke-linejoin="miter" />
  <text x="640.5" y="-139.8" fill="black" text-anchor="start" dominant-baseline="middle" font-size="31.631382" font-style="italic" font-family="KaTeX_Main, 'Times New Roman', Times, serif">L</text>
  <path d="M 552.5 -101.2 C 555.5 -102.1 561.3 -107.3 570.2 -106.5 C 578.9 -105.6 596.6 -96.8 605.4 -95.9 C 614.2 -95.1 620.1 -100.3 623 -101.2" stroke="red" fill="none" stroke-width="2.108758821496093" stroke-dasharray="10.543794107480464 7.029196071653643" stroke-linecap="butt" stroke-linejoin="miter" />
  <text x="640.5" y="-101.2" fill="black" text-anchor="start" dominant-baseline="middle" font-size="31.631382" font-style="italic" font-family="KaTeX_Main, 'Times New Roman', Times, serif">H</text>
</svg>
