<svg class="tikz-render-svg" xmlns="http://www.w3.org/2000/svg" viewBox="-73.677979 -329.867151 628.677979 393.348457">
  <rect class="tikz-background" x="-73.677979" y="-329.867151" width="628.677979" height="393.348457" fill="white" />
  <path d="M -30 0 L 555 0 L 555 -309 L -30 -309 Z" stroke="none" fill="none" stroke-width="1.4058392143307286" />
  <path d="M 0 17.5 L 500 17.5" stroke="rgb(128 128 128)" fill="none" stroke-width="1.4058392143307286" stroke-linecap="butt" stroke-linejoin="miter" />
  <path d="M -17.5 0 L -17.5 -309" stroke="rgb(128 128 128)" fill="none" stroke-width="1.4058392143307286" stroke-linecap="butt" stroke-linejoin="miter" />
  <path d="M 0 0 L 500 0" stroke="rgb(191 191 191)" fill="none" stroke-width="1.4058392143307286" stroke-linecap="square" stroke-linejoin="miter" />
  <path d="M 0 -309 L 500 -309" stroke="rgb(191 191 191)" fill="none" stroke-width="1.4058392143307286" stroke-linecap="square" stroke-linejoin="miter" />
  <path d="M 0 0 L 0 -309" stroke="rgb(191 191 191)" fill="none" stroke-width="1.4058392143307286" stroke-linecap="square" stroke-linejoin="miter" />
  <path d="M 500 0 L 500 -309" stroke="rgb(191 191 191)" fill="none" stroke-width="1.4058392143307286" stroke-linecap="square" stroke-linejoin="miter" />
  <path d="M 0 17.5 L 0 24.5" stroke="rgb(128 128 128)" fill="none" stroke-width="1.4058392143307286" stroke-linecap="butt" stroke-linejoin="miter" />
  <text x="0" y="47.314155" fill="black" text-anchor="middle" dominant-baseline="middle" xml:space="preserve" font-size="28.116784" font-family="KaTeX_Main, 'Times New Roman', Times, serif">0</text>
  <path d="M 79.6 17.5 L 79.6 24.5" stroke="rgb(128 128 128)" fill="none" stroke-width="1.4058392143307286" stroke-linecap="butt" stroke-linejoin="miter" />
  <text x="79.6" y="47.314155" fill="black" text-anchor="middle" dominant-baseline="middle" xml:space="preserve" font-size="28.116784" font-family="KaTeX_Main, 'Times New Roman', Times, serif">0.5</text>
  <path d="M 159.1 17.5 L 159.1 24.5" stroke="rgb(128 128 128)" fill="none" stroke-width="1.4058392143307286" stroke-linecap="butt" stroke-linejoin="miter" />
  <text x="159.1" y="47.314155" fill="black" text-anchor="middle" dominant-baseline="middle" xml:space="preserve" font-size="28.116784" font-family="KaTeX_Main, 'Times New Roman', Times, serif">1</text>
  <path d="M 238.7 17.5 L 238.7 24.5" stroke="rgb(128 128 128)" fill="none" stroke-width="1.4058392143307286" stroke-linecap="butt" stroke-linejoin="miter" />
  <text x="238.7" y="47.314155" fill="black" text-anchor="middle" dominant-baseline="middle" xml:space="preserve" font-size="28.116784" font-family="KaTeX_Main, 'Times New Roman', Times, serif">1.5</text>
  <path d="M 318.3 17.5 L 318.3 24.5" stroke="rgb(128 128 128)" fill="none" stroke-width="1.4058392143307286" stroke-linecap="butt" stroke-linejoin="miter" />
  <text x="318.3" y="47.314155" fill="black" text-anchor="middle" dominant-baseline="middle" xml:space="preserve" font-size="28.116784" font-family="KaTeX_Main, 'Times New Roman', Times, serif">2</text>
  <path d="M 397.8 17.5 L 397.8 24.5" stroke="rgb(128 128 128)" fill="none" stroke-width="1.4058392143307286" stroke-linecap="butt" stroke-linejoin="miter" />
  <text x="397.8" y="47.314155" fill="black" text-anchor="middle" dominant-baseline="middle" xml:space="preserve" font-size="28.116784" font-family="KaTeX_Main, 'Times New Roman', Times, serif">2.5</text>
  <path d="M 477.4 17.5 L 477.4 24.5" stroke="rgb(128 128 128)" fill="none" stroke-width="1.4058392143307286" stroke-linecap="butt" stroke-linejoin="miter" />
  <text x="477.4" y="47.314155" fill="black" text-anchor="middle" dominant-baseline="middle" xml:space="preserve" font-size="28.116784" font-family="KaTeX_Main, 'Times New Roman', Times, serif">3</text>
  <path d="M -17.5 0 L -24.5 0" stroke="rgb(128 128 128)" fill="none" stroke-width="1.4058392143307286" stroke-linecap="butt" stroke-linejoin="miter" />
  <text x="-45.314155" y="0" fill="black" text-anchor="middle" dominant-baseline="middle" xml:space="preserve" font-size="28.116784" font-family="KaTeX_Main, 'Times New Roman', Times, serif">0</text>
  <path d="M -17.5 -62.7 L -24.5 -62.7" stroke="rgb(128 128 128)" fill="none" stroke-width="1.4058392143307286" stroke-linecap="butt" stroke-linejoin="miter" />
  <text x="-55.714155" y="-62.7" fill="black" text-anchor="middle" dominant-baseline="middle" xml:space="preserve" font-size="28.116784" font-family="KaTeX_Main, 'Times New Roman', Times, serif">0.2</text>
  <path d="M -17.5 -125.5 L -24.5 -125.5" stroke="rgb(128 128 128)" fill="none" stroke-width="1.4058392143307286" stroke-linecap="butt" stroke-linejoin="miter" />
  <text x="-55.714155" y="-125.5" fill="black" text-anchor="middle" dominant-baseline="middle" xml:space="preserve" font-size="28.116784" font-family="KaTeX_Main, 'Times New Roman', Times, serif">0.4</text>
  <path d="M -17.5 -188.2 L -24.5 -188.2" stroke="rgb(128 128 128)" fill="none" stroke-width="1.4058392143307286" stroke-linecap="butt" stroke-linejoin="miter" />
  <text x="-55.714155" y="-188.2" fill="black" text-anchor="middle" dominant-baseline="middle" xml:space="preserve" font-size="28.116784" font-family="KaTeX_Main, 'Times New Roman', Times, serif">0.6</text>
  <path d="M -17.5 -251 L -24.5 -251" stroke="rgb(128 128 128)" fill="none" stroke-width="1.4058392143307286" stroke-linecap="butt" stroke-linejoin="miter" />
  <text x="-55.714155" y="-251" fill="black" text-anchor="middle" dominant-baseline="middle" xml:space="preserve" font-size="28.116784" font-family="KaTeX_Main, 'Times New Roman', Times, serif">0.8</text>
  <path d="M -17.5 -313.7 L -24.5 -313.7" stroke="rgb(128 128 128)" fill="none" stroke-width="1.4058392143307286" stroke-linecap="butt" stroke-linejoin="miter" />
  <text x="-45.314155" y="-313.7" fill="black" text-anchor="middle" dominant-baseline="middle" xml:space="preserve" font-size="28.116784" font-family="KaTeX_Main, 'Times New Roman', Times, serif">1</text>
  <path d="M -7 7 L 7 -7 M -7 -7 L 7 7" stroke="black" fill="none" stroke-width="1.4058392143307286" stroke-linecap="butt" stroke-linejoin="miter" />
  <path d="M 48.5 -100.3 L 62.6 -114.3 M 48.5 -114.3 L 62.6 -100.3" stroke="black" fill="none" stroke-width="1.4058392143307286" stroke-linecap="butt" stroke-linejoin="miter" />
  <path d="M 104 -194.6 L 118.1 -208.6 M 104 -208.6 L 118.1 -194.6" stroke="black" fill="none" stroke-width="1.4058392143307286" stroke-linecap="butt" stroke-linejoin="miter" />
  <path d="M 159.6 -264.6 L 173.6 -278.7 M 159.6 -278.7 L 173.6 -264.6" stroke="black" fill="none" stroke-width="1.4058392143307286" stroke-linecap="butt" stroke-linejoin="miter" />
  <path d="M 215.1 -301.9 L 229.2 -316 M 215.1 -316 L 229.2 -301.9" stroke="black" fill="none" stroke-width="1.4058392143307286" stroke-linecap="butt" stroke-linejoin="miter" />
  <path d="M 270.7 -301.9 L 284.7 -316 M 270.7 -316 L 284.7 -301.9" stroke="black" fill="none" stroke-width="1.4058392143307286" stroke-linecap="butt" stroke-linejoin="miter" />
  <path d="M 326.2 -264.7 L 340.3 -278.8 M 326.2 -278.8 L 340.3 -264.7" stroke="black" fill="none" stroke-width="1.4058392143307286" stroke-linecap="butt" stroke-linejoin="miter" />
  <path d="M 381.7 -194.7 L 395.8 -208.8 M 381.7 -208.8 L 395.8 -194.7" stroke="black" fill="none" stroke-width="1.4058392143307286" stroke-linecap="butt" stroke-linejoin="miter" />
  <path d="M 437.4 -100.1 L 451.5 -114.2 M 437.4 -114.2 L 451.5 -100.1" stroke="black" fill="none" stroke-width="1.4058392143307286" stroke-linecap="butt" stroke-linejoin="miter" />
  <path d="M 493 7.2 L 507 -6.9 M 493 -6.9 L 507 7.2" stroke="black" fill="none" stroke-width="1.4058392143307286" stroke-linecap="butt" stroke-linejoin="miter" />
</svg>
