<svg xmlns="http://www.w3.org/2000/svg" xmlns:xlink="http://www.w3.org/1999/xlink" width="610" height="1109" viewBox="0 0 610 1109"><rect width="100%" height="100%" fill="white"/><text x="40" y="63" font-family="Inter, Arial, sans-serif" font-size="18" font-weight="700" fill="#475569">TikZKit JS SVG + 1cm grid</text><svg x="201.814" y="76" width="367.908" height="399.857" viewBox="-26.4 -384.25 427.8 464.95">
  <rect class="tikz-background" x="-26.4" y="-384.25" width="427.8" height="464.95" fill="white" />
  <path d="M -5000 5000 L -5000 -5000" stroke="rgb(140 140 140)" fill="none" stroke-width="0.4217517642992185" stroke-dasharray="2.4602186250787748 2.4602186250787748" stroke-linecap="butt" stroke-linejoin="miter" />
  <path d="M -4900 5000 L -4900 -5000" stroke="rgb(140 140 140)" fill="none" stroke-width="0.4217517642992185" stroke-dasharray="2.4602186250787748 2.4602186250787748" stroke-linecap="butt" stroke-linejoin="miter" />
  <path d="M -4800 5000 L -4800 -5000" stroke="rgb(140 140 140)" fill="none" stroke-width="0.4217517642992185" stroke-dasharray="2.4602186250787748 2.4602186250787748" stroke-linecap="butt" stroke-linejoin="miter" />
  <path d="M -4700 5000 L -4700 -5000" stroke="rgb(140 140 140)" fill="none" stroke-width="0.4217517642992185" stroke-dasharray="2.4602186250787748 2.4602186250787748" stroke-linecap="butt" stroke-linejoin="miter" />
  <path d="M -4600 5000 L -4600 -5000" stroke="rgb(140 140 140)" fill="none" stroke-width="0.4217517642992185" stroke-dasharray="2.4602186250787748 2.4602186250787748" stroke-linecap="butt" stroke-linejoin="miter" />
  <path d="M -4500 5000 L -4500 -5000" stroke="rgb(140 140 140)" fill="none" stroke-width="0.4217517642992185" stroke-dasharray="2.4602186250787748 2.4602186250787748" stroke-linecap="butt" stroke-linejoin="miter" />
  <path d="M -4400 5000 L -4400 -5000" stroke="rgb(140 140 140)" fill="none" stroke-width="0.4217517642992185" stroke-dasharray="2.4602186250787748 2.4602186250787748" stroke-linecap="butt" stroke-linejoin="miter" />
  <path d="M -4300 5000 L -4300 -5000" stroke="rgb(140 140 140)" fill="none" stroke-width="0.4217517642992185" stroke-dasharray="2.4602186250787748 2.4602186250787748" stroke-linecap="butt" stroke-linejoin="miter" />
  <path d="M -4200 5000 L -4200 -5000" stroke="rgb(140 140 140)" fill="none" stroke-width="0.4217517642992185" stroke-dasharray="2.4602186250787748 2.4602186250787748" stroke-linecap="butt" stroke-linejoin="miter" />
  <path d="M -4100 5000 L -4100 -5000" stroke="rgb(140 140 140)" fill="none" stroke-width="0.4217517642992185" stroke-dasharray="2.4602186250787748 2.4602186250787748" stroke-linecap="butt" stroke-linejoin="miter" />
  <path d="M -4000 5000 L -4000 -5000" stroke="rgb(140 140 140)" fill="none" stroke-width="0.4217517642992185" stroke-dasharray="2.4602186250787748 2.4602186250787748" stroke-linecap="butt" stroke-linejoin="miter" />
  <path d="M -3900 5000 L -3900 -5000" stroke="rgb(140 140 140)" fill="none" stroke-width="0.4217517642992185" stroke-dasharray="2.4602186250787748 2.4602186250787748" stroke-linecap="butt" stroke-linejoin="miter" />
  <path d="M -3800 5000 L -3800 -5000" stroke="rgb(140 140 140)" fill="none" stroke-width="0.4217517642992185" stroke-dasharray="2.4602186250787748 2.4602186250787748" stroke-linecap="butt" stroke-linejoin="miter" />
  <path d="M -3700 5000 L -3700 -5000" stroke="rgb(140 140 140)" fill="none" stroke-width="0.4217517642992185" stroke-dasharray="2.4602186250787748 2.4602186250787748" stroke-linecap="butt" stroke-linejoin="miter" />
  <path d="M -3600 5000 L -3600 -5000" stroke="rgb(140 140 140)" fill="none" stroke-width="0.4217517642992185" stroke-dasharray="2.4602186250787748 2.4602186250787748" stroke-linecap="butt" stroke-linejoin="miter" />
  <path d="M -3500 5000 L -3500 -5000" stroke="rgb(140 140 140)" fill="none" stroke-width="0.4217517642992185" stroke-dasharray="2.4602186250787748 2.4602186250787748" stroke-linecap="butt" stroke-linejoin="miter" />
  <path d="M -3400 5000 L -3400 -5000" stroke="rgb(140 140 140)" fill="none" stroke-width="0.4217517642992185" stroke-dasharray="2.4602186250787748 2.4602186250787748" stroke-linecap="butt" stroke-linejoin="miter" />
  <path d="M -3300 5000 L -3300 -5000" stroke="rgb(140 140 140)" fill="none" stroke-width="0.4217517642992185" stroke-dasharray="2.4602186250787748 2.4602186250787748" stroke-linecap="butt" stroke-linejoin="miter" />
  <path d="M -3200 5000 L -3200 -5000" stroke="rgb(140 140 140)" fill="none" stroke-width="0.4217517642992185" stroke-dasharray="2.4602186250787748 2.4602186250787748" stroke-linecap="butt" stroke-linejoin="miter" />
  <path d="M -3100 5000 L -3100 -5000" stroke="rgb(140 140 140)" fill="none" stroke-width="0.4217517642992185" stroke-dasharray="2.4602186250787748 2.4602186250787748" stroke-linecap="butt" stroke-linejoin="miter" />
  <path d="M -3000 5000 L -3000 -5000" stroke="rgb(140 140 140)" fill="none" stroke-width="0.4217517642992185" stroke-dasharray="2.4602186250787748 2.4602186250787748" stroke-linecap="butt" stroke-linejoin="miter" />
  <path d="M -2900 5000 L -2900 -5000" stroke="rgb(140 140 140)" fill="none" stroke-width="0.4217517642992185" stroke-dasharray="2.4602186250787748 2.4602186250787748" stroke-linecap="butt" stroke-linejoin="miter" />
  <path d="M -2800 5000 L -2800 -5000" stroke="rgb(140 140 140)" fill="none" stroke-width="0.4217517642992185" stroke-dasharray="2.4602186250787748 2.4602186250787748" stroke-linecap="butt" stroke-linejoin="miter" />
  <path d="M -2700 5000 L -2700 -5000" stroke="rgb(140 140 140)" fill="none" stroke-width="0.4217517642992185" stroke-dasharray="2.4602186250787748 2.4602186250787748" stroke-linecap="butt" stroke-linejoin="miter" />
  <path d="M -2600 5000 L -2600 -5000" stroke="rgb(140 140 140)" fill="none" stroke-width="0.4217517642992185" stroke-dasharray="2.4602186250787748 2.4602186250787748" stroke-linecap="butt" stroke-linejoin="miter" />
  <path d="M -2500 5000 L -2500 -5000" stroke="rgb(140 140 140)" fill="none" stroke-width="0.4217517642992185" stroke-dasharray="2.4602186250787748 2.4602186250787748" stroke-linecap="butt" stroke-linejoin="miter" />
  <path d="M -2400 5000 L -2400 -5000" stroke="rgb(140 140 140)" fill="none" stroke-width="0.4217517642992185" stroke-dasharray="2.4602186250787748 2.4602186250787748" stroke-linecap="butt" stroke-linejoin="miter" />
  <path d="M -2300 5000 L -2300 -5000" stroke="rgb(140 140 140)" fill="none" stroke-width="0.4217517642992185" stroke-dasharray="2.4602186250787748 2.4602186250787748" stroke-linecap="butt" stroke-linejoin="miter" />
  <path d="M -2200 5000 L -2200 -5000" stroke="rgb(140 140 140)" fill="none" stroke-width="0.4217517642992185" stroke-dasharray="2.4602186250787748 2.4602186250787748" stroke-linecap="butt" stroke-linejoin="miter" />
  <path d="M -2100 5000 L -2100 -5000" stroke="rgb(140 140 140)" fill="none" stroke-width="0.4217517642992185" stroke-dasharray="2.4602186250787748 2.4602186250787748" stroke-linecap="butt" stroke-linejoin="miter" />
  <path d="M -2000 5000 L -2000 -5000" stroke="rgb(140 140 140)" fill="none" stroke-width="0.4217517642992185" stroke-dasharray="2.4602186250787748 2.4602186250787748" stroke-linecap="butt" stroke-linejoin="miter" />
  <path d="M -1900 5000 L -1900 -5000" stroke="rgb(140 140 140)" fill="none" stroke-width="0.4217517642992185" stroke-dasharray="2.4602186250787748 2.4602186250787748" stroke-linecap="butt" stroke-linejoin="miter" />
  <path d="M -1800 5000 L -1800 -5000" stroke="rgb(140 140 140)" fill="none" stroke-width="0.4217517642992185" stroke-dasharray="2.4602186250787748 2.4602186250787748" stroke-linecap="butt" stroke-linejoin="miter" />
  <path d="M -1700 5000 L -1700 -5000" stroke="rgb(140 140 140)" fill="none" stroke-width="0.4217517642992185" stroke-dasharray="2.4602186250787748 2.4602186250787748" stroke-linecap="butt" stroke-linejoin="miter" />
  <path d="M -1600 5000 L -1600 -5000" stroke="rgb(140 140 140)" fill="none" stroke-width="0.4217517642992185" stroke-dasharray="2.4602186250787748 2.4602186250787748" stroke-linecap="butt" stroke-linejoin="miter" />
  <path d="M -1500 5000 L -1500 -5000" stroke="rgb(140 140 140)" fill="none" stroke-width="0.4217517642992185" stroke-dasharray="2.4602186250787748 2.4602186250787748" stroke-linecap="butt" stroke-linejoin="miter" />
  <path d="M -1400 5000 L -1400 -5000" stroke="rgb(140 140 140)" fill="none" stroke-width="0.4217517642992185" stroke-dasharray="2.4602186250787748 2.4602186250787748" stroke-linecap="butt" stroke-linejoin="miter" />
  <path d="M -1300 5000 L -1300 -5000" stroke="rgb(140 140 140)" fill="none" stroke-width="0.4217517642992185" stroke-dasharray="2.4602186250787748 2.4602186250787748" stroke-linecap="butt" stroke-linejoin="miter" />
  <path d="M -1200 5000 L -1200 -5000" stroke="rgb(140 140 140)" fill="none" stroke-width="0.4217517642992185" stroke-dasharray="2.4602186250787748 2.4602186250787748" stroke-linecap="butt" stroke-linejoin="miter" />
  <path d="M -1100 5000 L -1100 -5000" stroke="rgb(140 140 140)" fill="none" stroke-width="0.4217517642992185" stroke-dasharray="2.4602186250787748 2.4602186250787748" stroke-linecap="butt" stroke-linejoin="miter" />
  <path d="M -1000 5000 L -1000 -5000" stroke="rgb(140 140 140)" fill="none" stroke-width="0.4217517642992185" stroke-dasharray="2.4602186250787748 2.4602186250787748" stroke-linecap="butt" stroke-linejoin="miter" />
  <path d="M -900 5000 L -900 -5000" stroke="rgb(140 140 140)" fill="none" stroke-width="0.4217517642992185" stroke-dasharray="2.4602186250787748 2.4602186250787748" stroke-linecap="butt" stroke-linejoin="miter" />
  <path d="M -800 5000 L -800 -5000" stroke="rgb(140 140 140)" fill="none" stroke-width="0.4217517642992185" stroke-dasharray="2.4602186250787748 2.4602186250787748" stroke-linecap="butt" stroke-linejoin="miter" />
  <path d="M -700 5000 L -700 -5000" stroke="rgb(140 140 140)" fill="none" stroke-width="0.4217517642992185" stroke-dasharray="2.4602186250787748 2.4602186250787748" stroke-linecap="butt" stroke-linejoin="miter" />
  <path d="M -600 5000 L -600 -5000" stroke="rgb(140 140 140)" fill="none" stroke-width="0.4217517642992185" stroke-dasharray="2.4602186250787748 2.4602186250787748" stroke-linecap="butt" stroke-linejoin="miter" />
  <path d="M -500 5000 L -500 -5000" stroke="rgb(140 140 140)" fill="none" stroke-width="0.4217517642992185" stroke-dasharray="2.4602186250787748 2.4602186250787748" stroke-linecap="butt" stroke-linejoin="miter" />
  <path d="M -400 5000 L -400 -5000" stroke="rgb(140 140 140)" fill="none" stroke-width="0.4217517642992185" stroke-dasharray="2.4602186250787748 2.4602186250787748" stroke-linecap="butt" stroke-linejoin="miter" />
  <path d="M -300 5000 L -300 -5000" stroke="rgb(140 140 140)" fill="none" stroke-width="0.4217517642992185" stroke-dasharray="2.4602186250787748 2.4602186250787748" stroke-linecap="butt" stroke-linejoin="miter" />
  <path d="M -200 5000 L -200 -5000" stroke="rgb(140 140 140)" fill="none" stroke-width="0.4217517642992185" stroke-dasharray="2.4602186250787748 2.4602186250787748" stroke-linecap="butt" stroke-linejoin="miter" />
  <path d="M -100 5000 L -100 -5000" stroke="rgb(140 140 140)" fill="none" stroke-width="0.4217517642992185" stroke-dasharray="2.4602186250787748 2.4602186250787748" stroke-linecap="butt" stroke-linejoin="miter" />
  <path d="M 0 5000 L 0 -5000" stroke="rgb(140 140 140)" fill="none" stroke-width="0.4217517642992185" stroke-dasharray="2.4602186250787748 2.4602186250787748" stroke-linecap="butt" stroke-linejoin="miter" />
  <path d="M 100 5000 L 100 -5000" stroke="rgb(140 140 140)" fill="none" stroke-width="0.4217517642992185" stroke-dasharray="2.4602186250787748 2.4602186250787748" stroke-linecap="butt" stroke-linejoin="miter" />
  <path d="M 200 5000 L 200 -5000" stroke="rgb(140 140 140)" fill="none" stroke-width="0.4217517642992185" stroke-dasharray="2.4602186250787748 2.4602186250787748" stroke-linecap="butt" stroke-linejoin="miter" />
  <path d="M 300 5000 L 300 -5000" stroke="rgb(140 140 140)" fill="none" stroke-width="0.4217517642992185" stroke-dasharray="2.4602186250787748 2.4602186250787748" stroke-linecap="butt" stroke-linejoin="miter" />
  <path d="M 400 5000 L 400 -5000" stroke="rgb(140 140 140)" fill="none" stroke-width="0.4217517642992185" stroke-dasharray="2.4602186250787748 2.4602186250787748" stroke-linecap="butt" stroke-linejoin="miter" />
  <path d="M 500 5000 L 500 -5000" stroke="rgb(140 140 140)" fill="none" stroke-width="0.4217517642992185" stroke-dasharray="2.4602186250787748 2.4602186250787748" stroke-linecap="butt" stroke-linejoin="miter" />
  <path d="M 600 5000 L 600 -5000" stroke="rgb(140 140 140)" fill="none" stroke-width="0.4217517642992185" stroke-dasharray="2.4602186250787748 2.4602186250787748" stroke-linecap="butt" stroke-linejoin="miter" />
  <path d="M 700 5000 L 700 -5000" stroke="rgb(140 140 140)" fill="none" stroke-width="0.4217517642992185" stroke-dasharray="2.4602186250787748 2.4602186250787748" stroke-linecap="butt" stroke-linejoin="miter" />
  <path d="M 800 5000 L 800 -5000" stroke="rgb(140 140 140)" fill="none" stroke-width="0.4217517642992185" stroke-dasharray="2.4602186250787748 2.4602186250787748" stroke-linecap="butt" stroke-linejoin="miter" />
  <path d="M 900 5000 L 900 -5000" stroke="rgb(140 140 140)" fill="none" stroke-width="0.4217517642992185" stroke-dasharray="2.4602186250787748 2.4602186250787748" stroke-linecap="butt" stroke-linejoin="miter" />
  <path d="M 1000 5000 L 1000 -5000" stroke="rgb(140 140 140)" fill="none" stroke-width="0.4217517642992185" stroke-dasharray="2.4602186250787748 2.4602186250787748" stroke-linecap="butt" stroke-linejoin="miter" />
  <path d="M 1100 5000 L 1100 -5000" stroke="rgb(140 140 140)" fill="none" stroke-width="0.4217517642992185" stroke-dasharray="2.4602186250787748 2.4602186250787748" stroke-linecap="butt" stroke-linejoin="miter" />
  <path d="M 1200 5000 L 1200 -5000" stroke="rgb(140 140 140)" fill="none" stroke-width="0.4217517642992185" stroke-dasharray="2.4602186250787748 2.4602186250787748" stroke-linecap="butt" stroke-linejoin="miter" />
  <path d="M 1300 5000 L 1300 -5000" stroke="rgb(140 140 140)" fill="none" stroke-width="0.4217517642992185" stroke-dasharray="2.4602186250787748 2.4602186250787748" stroke-linecap="butt" stroke-linejoin="miter" />
  <path d="M 1400 5000 L 1400 -5000" stroke="rgb(140 140 140)" fill="none" stroke-width="0.4217517642992185" stroke-dasharray="2.4602186250787748 2.4602186250787748" stroke-linecap="butt" stroke-linejoin="miter" />
  <path d="M 1500 5000 L 1500 -5000" stroke="rgb(140 140 140)" fill="none" stroke-width="0.4217517642992185" stroke-dasharray="2.4602186250787748 2.4602186250787748" stroke-linecap="butt" stroke-linejoin="miter" />
  <path d="M 1600 5000 L 1600 -5000" stroke="rgb(140 140 140)" fill="none" stroke-width="0.4217517642992185" stroke-dasharray="2.4602186250787748 2.4602186250787748" stroke-linecap="butt" stroke-linejoin="miter" />
  <path d="M 1700 5000 L 1700 -5000" stroke="rgb(140 140 140)" fill="none" stroke-width="0.4217517642992185" stroke-dasharray="2.4602186250787748 2.4602186250787748" stroke-linecap="butt" stroke-linejoin="miter" />
  <path d="M 1800 5000 L 1800 -5000" stroke="rgb(140 140 140)" fill="none" stroke-width="0.4217517642992185" stroke-dasharray="2.4602186250787748 2.4602186250787748" stroke-linecap="butt" stroke-linejoin="miter" />
  <path d="M 1900 5000 L 1900 -5000" stroke="rgb(140 140 140)" fill="none" stroke-width="0.4217517642992185" stroke-dasharray="2.4602186250787748 2.4602186250787748" stroke-linecap="butt" stroke-linejoin="miter" />
  <path d="M 2000 5000 L 2000 -5000" stroke="rgb(140 140 140)" fill="none" stroke-width="0.4217517642992185" stroke-dasharray="2.4602186250787748 2.4602186250787748" stroke-linecap="butt" stroke-linejoin="miter" />
  <path d="M 2100 5000 L 2100 -5000" stroke="rgb(140 140 140)" fill="none" stroke-width="0.4217517642992185" stroke-dasharray="2.4602186250787748 2.4602186250787748" stroke-linecap="butt" stroke-linejoin="miter" />
  <path d="M 2200 5000 L 2200 -5000" stroke="rgb(140 140 140)" fill="none" stroke-width="0.4217517642992185" stroke-dasharray="2.4602186250787748 2.4602186250787748" stroke-linecap="butt" stroke-linejoin="miter" />
  <path d="M 2300 5000 L 2300 -5000" stroke="rgb(140 140 140)" fill="none" stroke-width="0.4217517642992185" stroke-dasharray="2.4602186250787748 2.4602186250787748" stroke-linecap="butt" stroke-linejoin="miter" />
  <path d="M 2400 5000 L 2400 -5000" stroke="rgb(140 140 140)" fill="none" stroke-width="0.4217517642992185" stroke-dasharray="2.4602186250787748 2.4602186250787748" stroke-linecap="butt" stroke-linejoin="miter" />
  <path d="M 2500 5000 L 2500 -5000" stroke="rgb(140 140 140)" fill="none" stroke-width="0.4217517642992185" stroke-dasharray="2.4602186250787748 2.4602186250787748" stroke-linecap="butt" stroke-linejoin="miter" />
  <path d="M 2600 5000 L 2600 -5000" stroke="rgb(140 140 140)" fill="none" stroke-width="0.4217517642992185" stroke-dasharray="2.4602186250787748 2.4602186250787748" stroke-linecap="butt" stroke-linejoin="miter" />
  <path d="M 2700 5000 L 2700 -5000" stroke="rgb(140 140 140)" fill="none" stroke-width="0.4217517642992185" stroke-dasharray="2.4602186250787748 2.4602186250787748" stroke-linecap="butt" stroke-linejoin="miter" />
  <path d="M 2800 5000 L 2800 -5000" stroke="rgb(140 140 140)" fill="none" stroke-width="0.4217517642992185" stroke-dasharray="2.4602186250787748 2.4602186250787748" stroke-linecap="butt" stroke-linejoin="miter" />
  <path d="M 2900 5000 L 2900 -5000" stroke="rgb(140 140 140)" fill="none" stroke-width="0.4217517642992185" stroke-dasharray="2.4602186250787748 2.4602186250787748" stroke-linecap="butt" stroke-linejoin="miter" />
  <path d="M 3000 5000 L 3000 -5000" stroke="rgb(140 140 140)" fill="none" stroke-width="0.4217517642992185" stroke-dasharray="2.4602186250787748 2.4602186250787748" stroke-linecap="butt" stroke-linejoin="miter" />
  <path d="M 3100 5000 L 3100 -5000" stroke="rgb(140 140 140)" fill="none" stroke-width="0.4217517642992185" stroke-dasharray="2.4602186250787748 2.4602186250787748" stroke-linecap="butt" stroke-linejoin="miter" />
  <path d="M 3200 5000 L 3200 -5000" stroke="rgb(140 140 140)" fill="none" stroke-width="0.4217517642992185" stroke-dasharray="2.4602186250787748 2.4602186250787748" stroke-linecap="butt" stroke-linejoin="miter" />
  <path d="M 3300 5000 L 3300 -5000" stroke="rgb(140 140 140)" fill="none" stroke-width="0.4217517642992185" stroke-dasharray="2.4602186250787748 2.4602186250787748" stroke-linecap="butt" stroke-linejoin="miter" />
  <path d="M 3400 5000 L 3400 -5000" stroke="rgb(140 140 140)" fill="none" stroke-width="0.4217517642992185" stroke-dasharray="2.4602186250787748 2.4602186250787748" stroke-linecap="butt" stroke-linejoin="miter" />
  <path d="M 3500 5000 L 3500 -5000" stroke="rgb(140 140 140)" fill="none" stroke-width="0.4217517642992185" stroke-dasharray="2.4602186250787748 2.4602186250787748" stroke-linecap="butt" stroke-linejoin="miter" />
  <path d="M 3600 5000 L 3600 -5000" stroke="rgb(140 140 140)" fill="none" stroke-width="0.4217517642992185" stroke-dasharray="2.4602186250787748 2.4602186250787748" stroke-linecap="butt" stroke-linejoin="miter" />
  <path d="M 3700 5000 L 3700 -5000" stroke="rgb(140 140 140)" fill="none" stroke-width="0.4217517642992185" stroke-dasharray="2.4602186250787748 2.4602186250787748" stroke-linecap="butt" stroke-linejoin="miter" />
  <path d="M 3800 5000 L 3800 -5000" stroke="rgb(140 140 140)" fill="none" stroke-width="0.4217517642992185" stroke-dasharray="2.4602186250787748 2.4602186250787748" stroke-linecap="butt" stroke-linejoin="miter" />
  <path d="M 3900 5000 L 3900 -5000" stroke="rgb(140 140 140)" fill="none" stroke-width="0.4217517642992185" stroke-dasharray="2.4602186250787748 2.4602186250787748" stroke-linecap="butt" stroke-linejoin="miter" />
  <path d="M 4000 5000 L 4000 -5000" stroke="rgb(140 140 140)" fill="none" stroke-width="0.4217517642992185" stroke-dasharray="2.4602186250787748 2.4602186250787748" stroke-linecap="butt" stroke-linejoin="miter" />
  <path d="M 4100 5000 L 4100 -5000" stroke="rgb(140 140 140)" fill="none" stroke-width="0.4217517642992185" stroke-dasharray="2.4602186250787748 2.4602186250787748" stroke-linecap="butt" stroke-linejoin="miter" />
  <path d="M 4200 5000 L 4200 -5000" stroke="rgb(140 140 140)" fill="none" stroke-width="0.4217517642992185" stroke-dasharray="2.4602186250787748 2.4602186250787748" stroke-linecap="butt" stroke-linejoin="miter" />
  <path d="M 4300 5000 L 4300 -5000" stroke="rgb(140 140 140)" fill="none" stroke-width="0.4217517642992185" stroke-dasharray="2.4602186250787748 2.4602186250787748" stroke-linecap="butt" stroke-linejoin="miter" />
  <path d="M 4400 5000 L 4400 -5000" stroke="rgb(140 140 140)" fill="none" stroke-width="0.4217517642992185" stroke-dasharray="2.4602186250787748 2.4602186250787748" stroke-linecap="butt" stroke-linejoin="miter" />
  <path d="M 4500 5000 L 4500 -5000" stroke="rgb(140 140 140)" fill="none" stroke-width="0.4217517642992185" stroke-dasharray="2.4602186250787748 2.4602186250787748" stroke-linecap="butt" stroke-linejoin="miter" />
  <path d="M 4600 5000 L 4600 -5000" stroke="rgb(140 140 140)" fill="none" stroke-width="0.4217517642992185" stroke-dasharray="2.4602186250787748 2.4602186250787748" stroke-linecap="butt" stroke-linejoin="miter" />
  <path d="M 4700 5000 L 4700 -5000" stroke="rgb(140 140 140)" fill="none" stroke-width="0.4217517642992185" stroke-dasharray="2.4602186250787748 2.4602186250787748" stroke-linecap="butt" stroke-linejoin="miter" />
  <path d="M 4800 5000 L 4800 -5000" stroke="rgb(140 140 140)" fill="none" stroke-width="0.4217517642992185" stroke-dasharray="2.4602186250787748 2.4602186250787748" stroke-linecap="butt" stroke-linejoin="miter" />
  <path d="M 4900 5000 L 4900 -5000" stroke="rgb(140 140 140)" fill="none" stroke-width="0.4217517642992185" stroke-dasharray="2.4602186250787748 2.4602186250787748" stroke-linecap="butt" stroke-linejoin="miter" />
  <path d="M 5000 5000 L 5000 -5000" stroke="rgb(140 140 140)" fill="none" stroke-width="0.4217517642992185" stroke-dasharray="2.4602186250787748 2.4602186250787748" stroke-linecap="butt" stroke-linejoin="miter" />
  <path d="M -5000 5000 L 5000 5000" stroke="rgb(140 140 140)" fill="none" stroke-width="0.4217517642992185" stroke-dasharray="2.4602186250787748 2.4602186250787748" stroke-linecap="butt" stroke-linejoin="miter" />
  <path d="M -5000 4900 L 5000 4900" stroke="rgb(140 140 140)" fill="none" stroke-width="0.4217517642992185" stroke-dasharray="2.4602186250787748 2.4602186250787748" stroke-linecap="butt" stroke-linejoin="miter" />
  <path d="M -5000 4800 L 5000 4800" stroke="rgb(140 140 140)" fill="none" stroke-width="0.4217517642992185" stroke-dasharray="2.4602186250787748 2.4602186250787748" stroke-linecap="butt" stroke-linejoin="miter" />
  <path d="M -5000 4700 L 5000 4700" stroke="rgb(140 140 140)" fill="none" stroke-width="0.4217517642992185" stroke-dasharray="2.4602186250787748 2.4602186250787748" stroke-linecap="butt" stroke-linejoin="miter" />
  <path d="M -5000 4600 L 5000 4600" stroke="rgb(140 140 140)" fill="none" stroke-width="0.4217517642992185" stroke-dasharray="2.4602186250787748 2.4602186250787748" stroke-linecap="butt" stroke-linejoin="miter" />
  <path d="M -5000 4500 L 5000 4500" stroke="rgb(140 140 140)" fill="none" stroke-width="0.4217517642992185" stroke-dasharray="2.4602186250787748 2.4602186250787748" stroke-linecap="butt" stroke-linejoin="miter" />
  <path d="M -5000 4400 L 5000 4400" stroke="rgb(140 140 140)" fill="none" stroke-width="0.4217517642992185" stroke-dasharray="2.4602186250787748 2.4602186250787748" stroke-linecap="butt" stroke-linejoin="miter" />
  <path d="M -5000 4300 L 5000 4300" stroke="rgb(140 140 140)" fill="none" stroke-width="0.4217517642992185" stroke-dasharray="2.4602186250787748 2.4602186250787748" stroke-linecap="butt" stroke-linejoin="miter" />
  <path d="M -5000 4200 L 5000 4200" stroke="rgb(140 140 140)" fill="none" stroke-width="0.4217517642992185" stroke-dasharray="2.4602186250787748 2.4602186250787748" stroke-linecap="butt" stroke-linejoin="miter" />
  <path d="M -5000 4100 L 5000 4100" stroke="rgb(140 140 140)" fill="none" stroke-width="0.4217517642992185" stroke-dasharray="2.4602186250787748 2.4602186250787748" stroke-linecap="butt" stroke-linejoin="miter" />
  <path d="M -5000 4000 L 5000 4000" stroke="rgb(140 140 140)" fill="none" stroke-width="0.4217517642992185" stroke-dasharray="2.4602186250787748 2.4602186250787748" stroke-linecap="butt" stroke-linejoin="miter" />
  <path d="M -5000 3900 L 5000 3900" stroke="rgb(140 140 140)" fill="none" stroke-width="0.4217517642992185" stroke-dasharray="2.4602186250787748 2.4602186250787748" stroke-linecap="butt" stroke-linejoin="miter" />
  <path d="M -5000 3800 L 5000 3800" stroke="rgb(140 140 140)" fill="none" stroke-width="0.4217517642992185" stroke-dasharray="2.4602186250787748 2.4602186250787748" stroke-linecap="butt" stroke-linejoin="miter" />
  <path d="M -5000 3700 L 5000 3700" stroke="rgb(140 140 140)" fill="none" stroke-width="0.4217517642992185" stroke-dasharray="2.4602186250787748 2.4602186250787748" stroke-linecap="butt" stroke-linejoin="miter" />
  <path d="M -5000 3600 L 5000 3600" stroke="rgb(140 140 140)" fill="none" stroke-width="0.4217517642992185" stroke-dasharray="2.4602186250787748 2.4602186250787748" stroke-linecap="butt" stroke-linejoin="miter" />
  <path d="M -5000 3500 L 5000 3500" stroke="rgb(140 140 140)" fill="none" stroke-width="0.4217517642992185" stroke-dasharray="2.4602186250787748 2.4602186250787748" stroke-linecap="butt" stroke-linejoin="miter" />
  <path d="M -5000 3400 L 5000 3400" stroke="rgb(140 140 140)" fill="none" stroke-width="0.4217517642992185" stroke-dasharray="2.4602186250787748 2.4602186250787748" stroke-linecap="butt" stroke-linejoin="miter" />
  <path d="M -5000 3300 L 5000 3300" stroke="rgb(140 140 140)" fill="none" stroke-width="0.4217517642992185" stroke-dasharray="2.4602186250787748 2.4602186250787748" stroke-linecap="butt" stroke-linejoin="miter" />
  <path d="M -5000 3200 L 5000 3200" stroke="rgb(140 140 140)" fill="none" stroke-width="0.4217517642992185" stroke-dasharray="2.4602186250787748 2.4602186250787748" stroke-linecap="butt" stroke-linejoin="miter" />
  <path d="M -5000 3100 L 5000 3100" stroke="rgb(140 140 140)" fill="none" stroke-width="0.4217517642992185" stroke-dasharray="2.4602186250787748 2.4602186250787748" stroke-linecap="butt" stroke-linejoin="miter" />
  <path d="M -5000 3000 L 5000 3000" stroke="rgb(140 140 140)" fill="none" stroke-width="0.4217517642992185" stroke-dasharray="2.4602186250787748 2.4602186250787748" stroke-linecap="butt" stroke-linejoin="miter" />
  <path d="M -5000 2900 L 5000 2900" stroke="rgb(140 140 140)" fill="none" stroke-width="0.4217517642992185" stroke-dasharray="2.4602186250787748 2.4602186250787748" stroke-linecap="butt" stroke-linejoin="miter" />
  <path d="M -5000 2800 L 5000 2800" stroke="rgb(140 140 140)" fill="none" stroke-width="0.4217517642992185" stroke-dasharray="2.4602186250787748 2.4602186250787748" stroke-linecap="butt" stroke-linejoin="miter" />
  <path d="M -5000 2700 L 5000 2700" stroke="rgb(140 140 140)" fill="none" stroke-width="0.4217517642992185" stroke-dasharray="2.4602186250787748 2.4602186250787748" stroke-linecap="butt" stroke-linejoin="miter" />
  <path d="M -5000 2600 L 5000 2600" stroke="rgb(140 140 140)" fill="none" stroke-width="0.4217517642992185" stroke-dasharray="2.4602186250787748 2.4602186250787748" stroke-linecap="butt" stroke-linejoin="miter" />
  <path d="M -5000 2500 L 5000 2500" stroke="rgb(140 140 140)" fill="none" stroke-width="0.4217517642992185" stroke-dasharray="2.4602186250787748 2.4602186250787748" stroke-linecap="butt" stroke-linejoin="miter" />
  <path d="M -5000 2400 L 5000 2400" stroke="rgb(140 140 140)" fill="none" stroke-width="0.4217517642992185" stroke-dasharray="2.4602186250787748 2.4602186250787748" stroke-linecap="butt" stroke-linejoin="miter" />
  <path d="M -5000 2300 L 5000 2300" stroke="rgb(140 140 140)" fill="none" stroke-width="0.4217517642992185" stroke-dasharray="2.4602186250787748 2.4602186250787748" stroke-linecap="butt" stroke-linejoin="miter" />
  <path d="M -5000 2200 L 5000 2200" stroke="rgb(140 140 140)" fill="none" stroke-width="0.4217517642992185" stroke-dasharray="2.4602186250787748 2.4602186250787748" stroke-linecap="butt" stroke-linejoin="miter" />
  <path d="M -5000 2100 L 5000 2100" stroke="rgb(140 140 140)" fill="none" stroke-width="0.4217517642992185" stroke-dasharray="2.4602186250787748 2.4602186250787748" stroke-linecap="butt" stroke-linejoin="miter" />
  <path d="M -5000 2000 L 5000 2000" stroke="rgb(140 140 140)" fill="none" stroke-width="0.4217517642992185" stroke-dasharray="2.4602186250787748 2.4602186250787748" stroke-linecap="butt" stroke-linejoin="miter" />
  <path d="M -5000 1900 L 5000 1900" stroke="rgb(140 140 140)" fill="none" stroke-width="0.4217517642992185" stroke-dasharray="2.4602186250787748 2.4602186250787748" stroke-linecap="butt" stroke-linejoin="miter" />
  <path d="M -5000 1800 L 5000 1800" stroke="rgb(140 140 140)" fill="none" stroke-width="0.4217517642992185" stroke-dasharray="2.4602186250787748 2.4602186250787748" stroke-linecap="butt" stroke-linejoin="miter" />
  <path d="M -5000 1700 L 5000 1700" stroke="rgb(140 140 140)" fill="none" stroke-width="0.4217517642992185" stroke-dasharray="2.4602186250787748 2.4602186250787748" stroke-linecap="butt" stroke-linejoin="miter" />
  <path d="M -5000 1600 L 5000 1600" stroke="rgb(140 140 140)" fill="none" stroke-width="0.4217517642992185" stroke-dasharray="2.4602186250787748 2.4602186250787748" stroke-linecap="butt" stroke-linejoin="miter" />
  <path d="M -5000 1500 L 5000 1500" stroke="rgb(140 140 140)" fill="none" stroke-width="0.4217517642992185" stroke-dasharray="2.4602186250787748 2.4602186250787748" stroke-linecap="butt" stroke-linejoin="miter" />
  <path d="M -5000 1400 L 5000 1400" stroke="rgb(140 140 140)" fill="none" stroke-width="0.4217517642992185" stroke-dasharray="2.4602186250787748 2.4602186250787748" stroke-linecap="butt" stroke-linejoin="miter" />
  <path d="M -5000 1300 L 5000 1300" stroke="rgb(140 140 140)" fill="none" stroke-width="0.4217517642992185" stroke-dasharray="2.4602186250787748 2.4602186250787748" stroke-linecap="butt" stroke-linejoin="miter" />
  <path d="M -5000 1200 L 5000 1200" stroke="rgb(140 140 140)" fill="none" stroke-width="0.4217517642992185" stroke-dasharray="2.4602186250787748 2.4602186250787748" stroke-linecap="butt" stroke-linejoin="miter" />
  <path d="M -5000 1100 L 5000 1100" stroke="rgb(140 140 140)" fill="none" stroke-width="0.4217517642992185" stroke-dasharray="2.4602186250787748 2.4602186250787748" stroke-linecap="butt" stroke-linejoin="miter" />
  <path d="M -5000 1000 L 5000 1000" stroke="rgb(140 140 140)" fill="none" stroke-width="0.4217517642992185" stroke-dasharray="2.4602186250787748 2.4602186250787748" stroke-linecap="butt" stroke-linejoin="miter" />
  <path d="M -5000 900 L 5000 900" stroke="rgb(140 140 140)" fill="none" stroke-width="0.4217517642992185" stroke-dasharray="2.4602186250787748 2.4602186250787748" stroke-linecap="butt" stroke-linejoin="miter" />
  <path d="M -5000 800 L 5000 800" stroke="rgb(140 140 140)" fill="none" stroke-width="0.4217517642992185" stroke-dasharray="2.4602186250787748 2.4602186250787748" stroke-linecap="butt" stroke-linejoin="miter" />
  <path d="M -5000 700 L 5000 700" stroke="rgb(140 140 140)" fill="none" stroke-width="0.4217517642992185" stroke-dasharray="2.4602186250787748 2.4602186250787748" stroke-linecap="butt" stroke-linejoin="miter" />
  <path d="M -5000 600 L 5000 600" stroke="rgb(140 140 140)" fill="none" stroke-width="0.4217517642992185" stroke-dasharray="2.4602186250787748 2.4602186250787748" stroke-linecap="butt" stroke-linejoin="miter" />
  <path d="M -5000 500 L 5000 500" stroke="rgb(140 140 140)" fill="none" stroke-width="0.4217517642992185" stroke-dasharray="2.4602186250787748 2.4602186250787748" stroke-linecap="butt" stroke-linejoin="miter" />
  <path d="M -5000 400 L 5000 400" stroke="rgb(140 140 140)" fill="none" stroke-width="0.4217517642992185" stroke-dasharray="2.4602186250787748 2.4602186250787748" stroke-linecap="butt" stroke-linejoin="miter" />
  <path d="M -5000 300 L 5000 300" stroke="rgb(140 140 140)" fill="none" stroke-width="0.4217517642992185" stroke-dasharray="2.4602186250787748 2.4602186250787748" stroke-linecap="butt" stroke-linejoin="miter" />
  <path d="M -5000 200 L 5000 200" stroke="rgb(140 140 140)" fill="none" stroke-width="0.4217517642992185" stroke-dasharray="2.4602186250787748 2.4602186250787748" stroke-linecap="butt" stroke-linejoin="miter" />
  <path d="M -5000 100 L 5000 100" stroke="rgb(140 140 140)" fill="none" stroke-width="0.4217517642992185" stroke-dasharray="2.4602186250787748 2.4602186250787748" stroke-linecap="butt" stroke-linejoin="miter" />
  <path d="M -5000 0 L 5000 0" stroke="rgb(140 140 140)" fill="none" stroke-width="0.4217517642992185" stroke-dasharray="2.4602186250787748 2.4602186250787748" stroke-linecap="butt" stroke-linejoin="miter" />
  <path d="M -5000 -100 L 5000 -100" stroke="rgb(140 140 140)" fill="none" stroke-width="0.4217517642992185" stroke-dasharray="2.4602186250787748 2.4602186250787748" stroke-linecap="butt" stroke-linejoin="miter" />
  <path d="M -5000 -200 L 5000 -200" stroke="rgb(140 140 140)" fill="none" stroke-width="0.4217517642992185" stroke-dasharray="2.4602186250787748 2.4602186250787748" stroke-linecap="butt" stroke-linejoin="miter" />
  <path d="M -5000 -300 L 5000 -300" stroke="rgb(140 140 140)" fill="none" stroke-width="0.4217517642992185" stroke-dasharray="2.4602186250787748 2.4602186250787748" stroke-linecap="butt" stroke-linejoin="miter" />
  <path d="M -5000 -400 L 5000 -400" stroke="rgb(140 140 140)" fill="none" stroke-width="0.4217517642992185" stroke-dasharray="2.4602186250787748 2.4602186250787748" stroke-linecap="butt" stroke-linejoin="miter" />
  <path d="M -5000 -500 L 5000 -500" stroke="rgb(140 140 140)" fill="none" stroke-width="0.4217517642992185" stroke-dasharray="2.4602186250787748 2.4602186250787748" stroke-linecap="butt" stroke-linejoin="miter" />
  <path d="M -5000 -600 L 5000 -600" stroke="rgb(140 140 140)" fill="none" stroke-width="0.4217517642992185" stroke-dasharray="2.4602186250787748 2.4602186250787748" stroke-linecap="butt" stroke-linejoin="miter" />
  <path d="M -5000 -700 L 5000 -700" stroke="rgb(140 140 140)" fill="none" stroke-width="0.4217517642992185" stroke-dasharray="2.4602186250787748 2.4602186250787748" stroke-linecap="butt" stroke-linejoin="miter" />
  <path d="M -5000 -800 L 5000 -800" stroke="rgb(140 140 140)" fill="none" stroke-width="0.4217517642992185" stroke-dasharray="2.4602186250787748 2.4602186250787748" stroke-linecap="butt" stroke-linejoin="miter" />
  <path d="M -5000 -900 L 5000 -900" stroke="rgb(140 140 140)" fill="none" stroke-width="0.4217517642992185" stroke-dasharray="2.4602186250787748 2.4602186250787748" stroke-linecap="butt" stroke-linejoin="miter" />
  <path d="M -5000 -1000 L 5000 -1000" stroke="rgb(140 140 140)" fill="none" stroke-width="0.4217517642992185" stroke-dasharray="2.4602186250787748 2.4602186250787748" stroke-linecap="butt" stroke-linejoin="miter" />
  <path d="M -5000 -1100 L 5000 -1100" stroke="rgb(140 140 140)" fill="none" stroke-width="0.4217517642992185" stroke-dasharray="2.4602186250787748 2.4602186250787748" stroke-linecap="butt" stroke-linejoin="miter" />
  <path d="M -5000 -1200 L 5000 -1200" stroke="rgb(140 140 140)" fill="none" stroke-width="0.4217517642992185" stroke-dasharray="2.4602186250787748 2.4602186250787748" stroke-linecap="butt" stroke-linejoin="miter" />
  <path d="M -5000 -1300 L 5000 -1300" stroke="rgb(140 140 140)" fill="none" stroke-width="0.4217517642992185" stroke-dasharray="2.4602186250787748 2.4602186250787748" stroke-linecap="butt" stroke-linejoin="miter" />
  <path d="M -5000 -1400 L 5000 -1400" stroke="rgb(140 140 140)" fill="none" stroke-width="0.4217517642992185" stroke-dasharray="2.4602186250787748 2.4602186250787748" stroke-linecap="butt" stroke-linejoin="miter" />
  <path d="M -5000 -1500 L 5000 -1500" stroke="rgb(140 140 140)" fill="none" stroke-width="0.4217517642992185" stroke-dasharray="2.4602186250787748 2.4602186250787748" stroke-linecap="butt" stroke-linejoin="miter" />
  <path d="M -5000 -1600 L 5000 -1600" stroke="rgb(140 140 140)" fill="none" stroke-width="0.4217517642992185" stroke-dasharray="2.4602186250787748 2.4602186250787748" stroke-linecap="butt" stroke-linejoin="miter" />
  <path d="M -5000 -1700 L 5000 -1700" stroke="rgb(140 140 140)" fill="none" stroke-width="0.4217517642992185" stroke-dasharray="2.4602186250787748 2.4602186250787748" stroke-linecap="butt" stroke-linejoin="miter" />
  <path d="M -5000 -1800 L 5000 -1800" stroke="rgb(140 140 140)" fill="none" stroke-width="0.4217517642992185" stroke-dasharray="2.4602186250787748 2.4602186250787748" stroke-linecap="butt" stroke-linejoin="miter" />
  <path d="M -5000 -1900 L 5000 -1900" stroke="rgb(140 140 140)" fill="none" stroke-width="0.4217517642992185" stroke-dasharray="2.4602186250787748 2.4602186250787748" stroke-linecap="butt" stroke-linejoin="miter" />
  <path d="M -5000 -2000 L 5000 -2000" stroke="rgb(140 140 140)" fill="none" stroke-width="0.4217517642992185" stroke-dasharray="2.4602186250787748 2.4602186250787748" stroke-linecap="butt" stroke-linejoin="miter" />
  <path d="M -5000 -2100 L 5000 -2100" stroke="rgb(140 140 140)" fill="none" stroke-width="0.4217517642992185" stroke-dasharray="2.4602186250787748 2.4602186250787748" stroke-linecap="butt" stroke-linejoin="miter" />
  <path d="M -5000 -2200 L 5000 -2200" stroke="rgb(140 140 140)" fill="none" stroke-width="0.4217517642992185" stroke-dasharray="2.4602186250787748 2.4602186250787748" stroke-linecap="butt" stroke-linejoin="miter" />
  <path d="M -5000 -2300 L 5000 -2300" stroke="rgb(140 140 140)" fill="none" stroke-width="0.4217517642992185" stroke-dasharray="2.4602186250787748 2.4602186250787748" stroke-linecap="butt" stroke-linejoin="miter" />
  <path d="M -5000 -2400 L 5000 -2400" stroke="rgb(140 140 140)" fill="none" stroke-width="0.4217517642992185" stroke-dasharray="2.4602186250787748 2.4602186250787748" stroke-linecap="butt" stroke-linejoin="miter" />
  <path d="M -5000 -2500 L 5000 -2500" stroke="rgb(140 140 140)" fill="none" stroke-width="0.4217517642992185" stroke-dasharray="2.4602186250787748 2.4602186250787748" stroke-linecap="butt" stroke-linejoin="miter" />
  <path d="M -5000 -2600 L 5000 -2600" stroke="rgb(140 140 140)" fill="none" stroke-width="0.4217517642992185" stroke-dasharray="2.4602186250787748 2.4602186250787748" stroke-linecap="butt" stroke-linejoin="miter" />
  <path d="M -5000 -2700 L 5000 -2700" stroke="rgb(140 140 140)" fill="none" stroke-width="0.4217517642992185" stroke-dasharray="2.4602186250787748 2.4602186250787748" stroke-linecap="butt" stroke-linejoin="miter" />
  <path d="M -5000 -2800 L 5000 -2800" stroke="rgb(140 140 140)" fill="none" stroke-width="0.4217517642992185" stroke-dasharray="2.4602186250787748 2.4602186250787748" stroke-linecap="butt" stroke-linejoin="miter" />
  <path d="M -5000 -2900 L 5000 -2900" stroke="rgb(140 140 140)" fill="none" stroke-width="0.4217517642992185" stroke-dasharray="2.4602186250787748 2.4602186250787748" stroke-linecap="butt" stroke-linejoin="miter" />
  <path d="M -5000 -3000 L 5000 -3000" stroke="rgb(140 140 140)" fill="none" stroke-width="0.4217517642992185" stroke-dasharray="2.4602186250787748 2.4602186250787748" stroke-linecap="butt" stroke-linejoin="miter" />
  <path d="M -5000 -3100 L 5000 -3100" stroke="rgb(140 140 140)" fill="none" stroke-width="0.4217517642992185" stroke-dasharray="2.4602186250787748 2.4602186250787748" stroke-linecap="butt" stroke-linejoin="miter" />
  <path d="M -5000 -3200 L 5000 -3200" stroke="rgb(140 140 140)" fill="none" stroke-width="0.4217517642992185" stroke-dasharray="2.4602186250787748 2.4602186250787748" stroke-linecap="butt" stroke-linejoin="miter" />
  <path d="M -5000 -3300 L 5000 -3300" stroke="rgb(140 140 140)" fill="none" stroke-width="0.4217517642992185" stroke-dasharray="2.4602186250787748 2.4602186250787748" stroke-linecap="butt" stroke-linejoin="miter" />
  <path d="M -5000 -3400 L 5000 -3400" stroke="rgb(140 140 140)" fill="none" stroke-width="0.4217517642992185" stroke-dasharray="2.4602186250787748 2.4602186250787748" stroke-linecap="butt" stroke-linejoin="miter" />
  <path d="M -5000 -3500 L 5000 -3500" stroke="rgb(140 140 140)" fill="none" stroke-width="0.4217517642992185" stroke-dasharray="2.4602186250787748 2.4602186250787748" stroke-linecap="butt" stroke-linejoin="miter" />
  <path d="M -5000 -3600 L 5000 -3600" stroke="rgb(140 140 140)" fill="none" stroke-width="0.4217517642992185" stroke-dasharray="2.4602186250787748 2.4602186250787748" stroke-linecap="butt" stroke-linejoin="miter" />
  <path d="M -5000 -3700 L 5000 -3700" stroke="rgb(140 140 140)" fill="none" stroke-width="0.4217517642992185" stroke-dasharray="2.4602186250787748 2.4602186250787748" stroke-linecap="butt" stroke-linejoin="miter" />
  <path d="M -5000 -3800 L 5000 -3800" stroke="rgb(140 140 140)" fill="none" stroke-width="0.4217517642992185" stroke-dasharray="2.4602186250787748 2.4602186250787748" stroke-linecap="butt" stroke-linejoin="miter" />
  <path d="M -5000 -3900 L 5000 -3900" stroke="rgb(140 140 140)" fill="none" stroke-width="0.4217517642992185" stroke-dasharray="2.4602186250787748 2.4602186250787748" stroke-linecap="butt" stroke-linejoin="miter" />
  <path d="M -5000 -4000 L 5000 -4000" stroke="rgb(140 140 140)" fill="none" stroke-width="0.4217517642992185" stroke-dasharray="2.4602186250787748 2.4602186250787748" stroke-linecap="butt" stroke-linejoin="miter" />
  <path d="M -5000 -4100 L 5000 -4100" stroke="rgb(140 140 140)" fill="none" stroke-width="0.4217517642992185" stroke-dasharray="2.4602186250787748 2.4602186250787748" stroke-linecap="butt" stroke-linejoin="miter" />
  <path d="M -5000 -4200 L 5000 -4200" stroke="rgb(140 140 140)" fill="none" stroke-width="0.4217517642992185" stroke-dasharray="2.4602186250787748 2.4602186250787748" stroke-linecap="butt" stroke-linejoin="miter" />
  <path d="M -5000 -4300 L 5000 -4300" stroke="rgb(140 140 140)" fill="none" stroke-width="0.4217517642992185" stroke-dasharray="2.4602186250787748 2.4602186250787748" stroke-linecap="butt" stroke-linejoin="miter" />
  <path d="M -5000 -4400 L 5000 -4400" stroke="rgb(140 140 140)" fill="none" stroke-width="0.4217517642992185" stroke-dasharray="2.4602186250787748 2.4602186250787748" stroke-linecap="butt" stroke-linejoin="miter" />
  <path d="M -5000 -4500 L 5000 -4500" stroke="rgb(140 140 140)" fill="none" stroke-width="0.4217517642992185" stroke-dasharray="2.4602186250787748 2.4602186250787748" stroke-linecap="butt" stroke-linejoin="miter" />
  <path d="M -5000 -4600 L 5000 -4600" stroke="rgb(140 140 140)" fill="none" stroke-width="0.4217517642992185" stroke-dasharray="2.4602186250787748 2.4602186250787748" stroke-linecap="butt" stroke-linejoin="miter" />
  <path d="M -5000 -4700 L 5000 -4700" stroke="rgb(140 140 140)" fill="none" stroke-width="0.4217517642992185" stroke-dasharray="2.4602186250787748 2.4602186250787748" stroke-linecap="butt" stroke-linejoin="miter" />
  <path d="M -5000 -4800 L 5000 -4800" stroke="rgb(140 140 140)" fill="none" stroke-width="0.4217517642992185" stroke-dasharray="2.4602186250787748 2.4602186250787748" stroke-linecap="butt" stroke-linejoin="miter" />
  <path d="M -5000 -4900 L 5000 -4900" stroke="rgb(140 140 140)" fill="none" stroke-width="0.4217517642992185" stroke-dasharray="2.4602186250787748 2.4602186250787748" stroke-linecap="butt" stroke-linejoin="miter" />
  <path d="M -5000 -5000 L 5000 -5000" stroke="rgb(140 140 140)" fill="none" stroke-width="0.4217517642992185" stroke-dasharray="2.4602186250787748 2.4602186250787748" stroke-linecap="butt" stroke-linejoin="miter" />
  <path d="M -4 6 L 383 6 L 383 -330.6 L -4 -330.6 Z" stroke="none" fill="none" stroke-width="1.4058392143307286" />
  <g class="tikz-arrowed-path"><path d="M -26.4 -120.7 L 399.994161 -120.7" stroke="black" fill="none" stroke-width="1.4058392143307286" stroke-linecap="butt" stroke-linejoin="miter" /><path class="tikz-arrow-tip tikz-arrow-to" d="M -4.204057 5.601123 C -3.434715 2.240449 -1.719459 0.64973 0 0 C -1.719459 -0.64973 -3.434715 -2.240449 -4.204057 -5.601123" fill="none" stroke="black" stroke-width="1.405839" stroke-linecap="round" stroke-linejoin="round" transform="translate(401.4 -120.7) rotate(0)" /></g>
  <g class="tikz-arrowed-path"><path d="M 187.5 26.4 L 187.5 -349.494161" stroke="black" fill="none" stroke-width="1.4058392143307286" stroke-linecap="butt" stroke-linejoin="miter" /><path class="tikz-arrow-tip tikz-arrow-to" d="M -4.204057 5.601123 C -3.434715 2.240449 -1.719459 0.64973 0 0 C -1.719459 -0.64973 -3.434715 -2.240449 -4.204057 -5.601123" fill="none" stroke="black" stroke-width="1.405839" stroke-linecap="round" stroke-linejoin="round" transform="translate(187.5 -350.9) rotate(-90)" /></g>
  <path d="M 37.5 -120.7 L 37.5 -113.7" stroke="black" fill="none" stroke-width="1.4058392143307286" stroke-linecap="butt" stroke-linejoin="miter" />
  <text x="37.5" y="-90.885845" fill="black" text-anchor="middle" dominant-baseline="middle" xml:space="preserve" font-size="28.116784" font-family="KaTeX_Main, 'Times New Roman', Times, serif">−2</text>
  <path d="M 112.5 -120.7 L 112.5 -113.7" stroke="black" fill="none" stroke-width="1.4058392143307286" stroke-linecap="butt" stroke-linejoin="miter" />
  <text x="112.5" y="-90.885845" fill="black" text-anchor="middle" dominant-baseline="middle" xml:space="preserve" font-size="28.116784" font-family="KaTeX_Main, 'Times New Roman', Times, serif">−1</text>
  <path d="M 187.5 -120.7 L 187.5 -113.7" stroke="black" fill="none" stroke-width="1.4058392143307286" stroke-linecap="butt" stroke-linejoin="miter" />
  <text x="187.5" y="-90.885845" fill="black" text-anchor="middle" dominant-baseline="middle" xml:space="preserve" font-size="28.116784" font-family="KaTeX_Main, 'Times New Roman', Times, serif">0</text>
  <path d="M 262.5 -120.7 L 262.5 -113.7" stroke="black" fill="none" stroke-width="1.4058392143307286" stroke-linecap="butt" stroke-linejoin="miter" />
  <text x="262.5" y="-90.885845" fill="black" text-anchor="middle" dominant-baseline="middle" xml:space="preserve" font-size="28.116784" font-family="KaTeX_Main, 'Times New Roman', Times, serif">1</text>
  <path d="M 337.5 -120.7 L 337.5 -113.7" stroke="black" fill="none" stroke-width="1.4058392143307286" stroke-linecap="butt" stroke-linejoin="miter" />
  <text x="337.5" y="-90.885845" fill="black" text-anchor="middle" dominant-baseline="middle" xml:space="preserve" font-size="28.116784" font-family="KaTeX_Main, 'Times New Roman', Times, serif">2</text>
  <path d="M 187.5 -45.7 L 180.5 -45.7" stroke="black" fill="none" stroke-width="1.4058392143307286" stroke-linecap="butt" stroke-linejoin="miter" />
  <text x="150.827445" y="-45.7" fill="black" text-anchor="middle" dominant-baseline="middle" xml:space="preserve" font-size="28.116784" font-family="KaTeX_Main, 'Times New Roman', Times, serif">−1</text>
  <path d="M 187.5 -120.7 L 180.5 -120.7" stroke="black" fill="none" stroke-width="1.4058392143307286" stroke-linecap="butt" stroke-linejoin="miter" />
  <text x="157.856645" y="-120.7" fill="black" text-anchor="middle" dominant-baseline="middle" xml:space="preserve" font-size="28.116784" font-family="KaTeX_Main, 'Times New Roman', Times, serif">0</text>
  <path d="M 187.5 -195.7 L 180.5 -195.7" stroke="black" fill="none" stroke-width="1.4058392143307286" stroke-linecap="butt" stroke-linejoin="miter" />
  <text x="157.856645" y="-195.7" fill="black" text-anchor="middle" dominant-baseline="middle" xml:space="preserve" font-size="28.116784" font-family="KaTeX_Main, 'Times New Roman', Times, serif">1</text>
  <path d="M 187.5 -270.7 L 180.5 -270.7" stroke="black" fill="none" stroke-width="1.4058392143307286" stroke-linecap="butt" stroke-linejoin="miter" />
  <text x="157.856645" y="-270.7" fill="black" text-anchor="middle" dominant-baseline="middle" xml:space="preserve" font-size="28.116784" font-family="KaTeX_Main, 'Times New Roman', Times, serif">2</text>
  <path d="M 202.5 0 C 202.5 0 207.7 -22.4 209.7 -29.4 C 211.7 -36.4 214.9 -45.2 216.9 -50.4 C 218.9 -55.7 222.1 -62.8 224.1 -66.9 C 226.1 -71 229.2 -76.8 231.2 -80.2 C 233.2 -83.7 236.4 -88.7 238.4 -91.7 C 240.4 -94.6 243.6 -99 245.6 -101.6 C 247.6 -104.2 250.8 -108 252.8 -110.3 C 254.8 -112.6 258 -116.1 260 -118.2 C 262 -120.2 265.2 -123.4 267.2 -125.3 C 269.2 -127.2 272.4 -130 274.4 -131.7 C 276.3 -133.4 279.6 -136.1 281.6 -137.7 C 283.5 -139.3 286.8 -141.7 288.8 -143.2 C 290.7 -144.7 294 -147 296 -148.4 C 297.9 -149.7 301.2 -151.9 303.2 -153.2 C 305.1 -154.5 308.4 -156.5 310.4 -157.7 C 312.3 -158.9 315.5 -160.8 317.5 -161.9 C 319.5 -163.1 322.7 -164.9 324.7 -166 C 326.7 -167.1 329.9 -168.8 331.9 -169.8 C 333.9 -170.9 337.1 -172.5 339.1 -173.5 C 341.1 -174.5 344.3 -176 346.3 -177 C 348.3 -177.9 351.5 -179.4 353.5 -180.3 C 355.5 -181.2 358.6 -182.6 360.6 -183.4 C 362.6 -184.3 365.8 -185.7 367.8 -186.5 C 369.8 -187.3 375 -189.4 375 -189.4" stroke="black" fill="none" stroke-width="2.108758821496093" stroke-linecap="butt" stroke-linejoin="miter" />
  <path d="M 37.5 -45.7 C 37.5 -45.7 47.7 -50.8 51.6 -52.7 C 55.5 -54.7 61.7 -57.8 65.6 -59.7 C 69.5 -61.7 75.8 -64.8 79.7 -66.8 C 83.6 -68.8 89.8 -71.9 93.8 -73.8 C 97.7 -75.8 103.9 -78.9 107.9 -80.9 C 111.8 -82.8 118 -85.9 121.9 -87.9 C 125.8 -89.8 132.1 -93 136 -94.9 C 139.9 -96.9 146.1 -100 150 -101.9 C 153.9 -103.9 160.2 -107 164.1 -109 C 168 -110.9 174.2 -114.1 178.1 -116 C 182 -118 188.3 -121.1 192.2 -123.1 C 196.1 -125 202.3 -128.1 206.3 -130.1 C 210.2 -132 216.4 -135.2 220.4 -137.1 C 224.3 -139.1 230.5 -142.2 234.4 -144.1 C 238.3 -146.1 244.6 -149.2 248.5 -151.2 C 252.4 -153.1 258.6 -156.3 262.5 -158.2 C 266.4 -160.2 272.7 -163.3 276.6 -165.3 C 280.5 -167.2 286.7 -170.3 290.6 -172.3 C 294.5 -174.2 300.8 -177.4 304.7 -179.3 C 308.6 -181.3 314.8 -184.4 318.8 -186.3 C 322.7 -188.3 328.9 -191.4 332.9 -193.4 C 336.8 -195.3 343 -198.4 346.9 -200.4 C 350.8 -202.3 357.1 -205.5 361 -207.4 C 364.9 -209.4 375 -214.5 375 -214.5" stroke="black" fill="none" stroke-width="2.108758821496093" stroke-dasharray="14.058392143307286 5.623356857322914" stroke-linecap="butt" stroke-linejoin="miter" />
  <path d="M 75 -289.5 C 75 -289.5 81.8 -269.7 84.4 -262.5 C 87 -255.4 91.1 -244.4 93.8 -237.9 C 96.4 -231.4 100.5 -221.5 103.1 -215.6 C 105.7 -209.8 109.9 -200.9 112.5 -195.7 C 115.1 -190.5 119.3 -182.7 121.9 -178.1 C 124.5 -173.6 128.6 -166.8 131.3 -162.9 C 133.9 -159 138 -153.2 140.6 -150 C 143.2 -146.7 147.4 -142.1 150 -139.4 C 152.6 -136.8 156.8 -133.2 159.4 -131.2 C 162 -129.3 166.1 -126.7 168.8 -125.4 C 171.4 -124.1 175.5 -122.5 178.1 -121.9 C 180.7 -121.2 184.9 -120.7 187.5 -120.7 C 190.1 -120.7 194.3 -121.2 196.9 -121.9 C 199.5 -122.5 203.6 -124.1 206.3 -125.4 C 208.9 -126.7 213 -129.3 215.6 -131.2 C 218.2 -133.2 222.4 -136.8 225 -139.4 C 227.6 -142.1 231.8 -146.7 234.4 -150 C 237 -153.2 241.1 -159 243.8 -162.9 C 246.4 -166.8 250.5 -173.6 253.1 -178.1 C 255.7 -182.7 259.9 -190.5 262.5 -195.7 C 265.1 -200.9 269.3 -209.8 271.9 -215.6 C 274.5 -221.5 278.6 -231.4 281.3 -237.9 C 283.9 -244.4 288 -255.4 290.6 -262.5 C 293.2 -269.7 300 -289.5 300 -289.5" stroke="black" fill="none" stroke-width="2.108758821496093" stroke-dasharray="4.217517642992186 4.217517642992186" stroke-linecap="butt" stroke-linejoin="miter" />
  <path d="M 0 -126.9 C 0 -126.9 7.9 -127.5 11 -127.8 C 14 -128.1 18.9 -128.6 21.9 -128.9 C 24.9 -129.3 29.8 -129.9 32.9 -130.2 C 35.9 -130.6 40.7 -131.3 43.7 -131.7 C 46.8 -132.2 51.6 -132.9 54.7 -133.5 C 57.7 -134 62.6 -134.9 65.6 -135.5 C 68.7 -136.1 73.5 -137.1 76.6 -137.8 C 79.6 -138.5 84.5 -139.7 87.5 -140.5 C 90.6 -141.3 95.4 -142.7 98.5 -143.6 C 101.5 -144.5 106.3 -146.1 109.4 -147.2 C 112.4 -148.2 117.3 -150.1 120.3 -151.3 C 123.3 -152.6 128.2 -154.7 131.3 -156.1 C 134.3 -157.6 139.2 -160 142.2 -161.7 C 145.2 -163.4 150.1 -166.2 153.2 -168.1 C 156.2 -170.1 161.1 -173.4 164.1 -175.6 C 167.1 -177.8 171.9 -181.6 175 -184.2 C 178 -186.7 182.9 -191.2 185.9 -194.1 C 189 -197.1 193.8 -202.2 196.9 -205.7 C 199.9 -209.1 204.8 -215.1 207.8 -219.1 C 210.9 -223.1 215.7 -229.9 218.8 -234.5 C 221.8 -239.1 226.7 -247.1 229.7 -252.4 C 232.8 -257.7 237.6 -266.8 240.6 -273 C 243.6 -279.1 248.5 -289.7 251.6 -296.9 C 254.6 -304.1 262.5 -324.6 262.5 -324.6" stroke="black" fill="none" stroke-width="2.108758821496093" stroke-dasharray="14.058392143307286 4.217517642992186 4.217517642992186 4.217517642992186" stroke-linecap="butt" stroke-linejoin="miter" />
  <path d="M -5.8 -367.6 C -2.9 -368.3 3 -372.9 11.7 -372.1 C 20.5 -371.4 38.1 -363.8 46.9 -363 C 55.7 -362.3 61.5 -366.8 64.5 -367.6" stroke="black" fill="none" stroke-width="2.108758821496093" stroke-linecap="butt" stroke-linejoin="miter" />
  <text x="82.1" y="-367.6" fill="black" text-anchor="start" dominant-baseline="middle" font-size="31.631382" font-style="italic" font-family="KaTeX_Main, 'Times New Roman', Times, serif"><tspan font-style="normal">log</tspan> x</text>
  <path d="M 132.5 -367.6 C 135.5 -368.3 141.3 -372.9 150.1 -372.1 C 158.9 -371.4 176.5 -363.8 185.3 -363 C 194.1 -362.3 199.9 -366.8 202.8 -367.6" stroke="black" fill="none" stroke-width="2.108758821496093" stroke-dasharray="14.058392143307286 5.623356857322914" stroke-linecap="butt" stroke-linejoin="miter" />
  <text x="220.4" y="-367.6" fill="black" text-anchor="start" dominant-baseline="middle" font-size="31.631382" font-style="italic" font-family="KaTeX_Main, 'Times New Roman', Times, serif">x/2</text>
  <path d="M -5.8 60 C -2.9 59.2 3 54.7 11.7 55.5 C 20.5 56.2 38.1 63.8 46.9 64.5 C 55.7 65.3 61.5 60.8 64.5 60" stroke="black" fill="none" stroke-width="2.108758821496093" stroke-dasharray="4.217517642992186 4.217517642992186" stroke-linecap="butt" stroke-linejoin="miter" />
  <text x="106.481655" y="60" fill="black" text-anchor="middle" dominant-baseline="middle" font-size="31.631382" font-style="italic" font-family="KaTeX_Main, 'Times New Roman', Times, serif"><tspan>x</tspan><tspan font-size="20.876712" font-style="normal" baseline-shift="super" dy="-6.958904">2</tspan><tspan dy="6.958904"></tspan></text>
  <path d="M 132.5 60 C 135.5 59.2 141.3 54.7 150.1 55.5 C 158.9 56.2 176.5 63.8 185.3 64.5 C 194.1 65.3 199.9 60.8 202.8 60" stroke="black" fill="none" stroke-width="2.108758821496093" stroke-dasharray="14.058392143307286 4.217517642992186 4.217517642992186 4.217517642992186" stroke-linecap="butt" stroke-linejoin="miter" />
  <text x="244.781655" y="60" fill="black" text-anchor="middle" dominant-baseline="middle" font-size="31.631382" font-style="italic" font-family="KaTeX_Main, 'Times New Roman', Times, serif"><tspan>e</tspan><tspan font-size="20.876712" font-style="normal" baseline-shift="super" dy="-6.958904">x</tspan><tspan dy="6.958904"></tspan></text>
</svg><text x="40" y="526.857" font-family="Inter, Arial, sans-serif" font-size="18" font-weight="700" fill="#475569">tikztosvg SVG + 1cm grid</text><svg x="40" y="603.241" width="369.035" height="465.42" viewBox="0 0 121.64 153.41">
<defs>
<g>
<g id="glyph-0-0">
<path d="M 5.5625 -1.8125 C 5.703125 -1.8125 5.875 -1.8125 5.875 -1.984375 C 5.875 -2.171875 5.703125 -2.171875 5.5625 -2.171875 L 1 -2.171875 C 0.875 -2.171875 0.703125 -2.171875 0.703125 -1.984375 C 0.703125 -1.8125 0.875 -1.8125 1 -1.8125 Z M 5.5625 -1.8125 "/>
</g>
<g id="glyph-1-0">
<path d="M 2.25 -1.625 C 2.375 -1.75 2.703125 -2.015625 2.84375 -2.125 C 3.328125 -2.578125 3.796875 -3.015625 3.796875 -3.734375 C 3.796875 -4.6875 3 -5.296875 2.015625 -5.296875 C 1.046875 -5.296875 0.421875 -4.578125 0.421875 -3.859375 C 0.421875 -3.46875 0.734375 -3.421875 0.84375 -3.421875 C 1.015625 -3.421875 1.265625 -3.53125 1.265625 -3.84375 C 1.265625 -4.25 0.859375 -4.25 0.765625 -4.25 C 1 -4.84375 1.53125 -5.03125 1.921875 -5.03125 C 2.65625 -5.03125 3.046875 -4.40625 3.046875 -3.734375 C 3.046875 -2.90625 2.46875 -2.296875 1.515625 -1.34375 L 0.515625 -0.296875 C 0.421875 -0.21875 0.421875 -0.203125 0.421875 0 L 3.5625 0 L 3.796875 -1.421875 L 3.546875 -1.421875 C 3.53125 -1.265625 3.46875 -0.875 3.375 -0.71875 C 3.328125 -0.65625 2.71875 -0.65625 2.59375 -0.65625 L 1.171875 -0.65625 Z M 2.25 -1.625 "/>
</g>
<g id="glyph-1-1">
<path d="M 2.5 -5.078125 C 2.5 -5.296875 2.484375 -5.296875 2.265625 -5.296875 C 1.9375 -4.984375 1.515625 -4.796875 0.765625 -4.796875 L 0.765625 -4.53125 C 0.984375 -4.53125 1.40625 -4.53125 1.875 -4.734375 L 1.875 -0.65625 C 1.875 -0.359375 1.84375 -0.265625 1.09375 -0.265625 L 0.8125 -0.265625 L 0.8125 0 C 1.140625 -0.03125 1.828125 -0.03125 2.1875 -0.03125 C 2.546875 -0.03125 3.234375 -0.03125 3.5625 0 L 3.5625 -0.265625 L 3.28125 -0.265625 C 2.53125 -0.265625 2.5 -0.359375 2.5 -0.65625 Z M 2.5 -5.078125 "/>
</g>
<g id="glyph-1-2">
<path d="M 3.890625 -2.546875 C 3.890625 -3.390625 3.8125 -3.90625 3.546875 -4.421875 C 3.203125 -5.125 2.546875 -5.296875 2.109375 -5.296875 C 1.109375 -5.296875 0.734375 -4.546875 0.625 -4.328125 C 0.34375 -3.75 0.328125 -2.953125 0.328125 -2.546875 C 0.328125 -2.015625 0.34375 -1.21875 0.734375 -0.578125 C 1.09375 0.015625 1.6875 0.171875 2.109375 0.171875 C 2.5 0.171875 3.171875 0.046875 3.578125 -0.734375 C 3.875 -1.3125 3.890625 -2.03125 3.890625 -2.546875 Z M 2.109375 -0.0625 C 1.84375 -0.0625 1.296875 -0.1875 1.125 -1.015625 C 1.03125 -1.46875 1.03125 -2.21875 1.03125 -2.640625 C 1.03125 -3.1875 1.03125 -3.75 1.125 -4.1875 C 1.296875 -5 1.90625 -5.078125 2.109375 -5.078125 C 2.375 -5.078125 2.9375 -4.9375 3.09375 -4.21875 C 3.1875 -3.78125 3.1875 -3.171875 3.1875 -2.640625 C 3.1875 -2.171875 3.1875 -1.453125 3.09375 -1 C 2.921875 -0.171875 2.375 -0.0625 2.109375 -0.0625 Z M 2.109375 -0.0625 "/>
</g>
<g id="glyph-2-0">
<path d="M 1.65625 -6.21875 L 0.328125 -6.125 L 0.328125 -5.84375 C 0.9375 -5.84375 1.015625 -5.78125 1.015625 -5.34375 L 1.015625 -0.6875 C 1.015625 -0.28125 0.921875 -0.28125 0.328125 -0.28125 L 0.328125 0 C 0.75 -0.015625 0.921875 -0.03125 1.328125 -0.03125 C 1.75 -0.03125 1.90625 -0.015625 2.34375 0 L 2.34375 -0.28125 C 1.75 -0.28125 1.65625 -0.28125 1.65625 -0.6875 Z M 1.65625 -6.21875 "/>
</g>
<g id="glyph-2-1">
<path d="M 4.34375 -1.90625 C 4.34375 -3.078125 3.40625 -4.015625 2.3125 -4.015625 C 1.171875 -4.015625 0.265625 -3.0625 0.265625 -1.90625 C 0.265625 -0.796875 1.1875 0.09375 2.296875 0.09375 C 3.4375 0.09375 4.34375 -0.8125 4.34375 -1.90625 Z M 2.3125 -0.15625 C 1.859375 -0.15625 1.484375 -0.375 1.28125 -0.71875 C 1.046875 -1.109375 1.03125 -1.578125 1.03125 -1.984375 C 1.03125 -2.328125 1.03125 -2.828125 1.25 -3.203125 C 1.53125 -3.65625 1.96875 -3.796875 2.296875 -3.796875 C 2.8125 -3.796875 3.171875 -3.5 3.359375 -3.203125 C 3.5625 -2.828125 3.5625 -2.375 3.5625 -1.984375 C 3.5625 -1.65625 3.5625 -1.140625 3.34375 -0.75 C 3.09375 -0.328125 2.6875 -0.15625 2.3125 -0.15625 Z M 2.3125 -0.15625 "/>
</g>
<g id="glyph-2-2">
<path d="M 1.125 -1.609375 C 1.34375 -1.46875 1.625 -1.328125 2.03125 -1.328125 C 2.890625 -1.328125 3.53125 -1.9375 3.53125 -2.640625 C 3.53125 -3.078125 3.28125 -3.390625 3.171875 -3.515625 C 3.53125 -3.84375 3.953125 -3.84375 4.046875 -3.84375 C 4.015625 -3.8125 3.9375 -3.765625 3.9375 -3.609375 C 3.9375 -3.5 4 -3.34375 4.203125 -3.34375 C 4.328125 -3.34375 4.46875 -3.421875 4.46875 -3.609375 C 4.46875 -3.78125 4.34375 -4.0625 3.984375 -4.0625 C 3.734375 -4.0625 3.328125 -3.96875 3.015625 -3.640625 C 2.765625 -3.84375 2.421875 -3.96875 2.046875 -3.96875 C 1.1875 -3.96875 0.546875 -3.359375 0.546875 -2.640625 C 0.546875 -2.1875 0.8125 -1.859375 0.953125 -1.734375 C 0.9375 -1.71875 0.6875 -1.40625 0.6875 -0.984375 C 0.6875 -0.6875 0.828125 -0.359375 1.078125 -0.203125 C 0.625 -0.046875 0.265625 0.28125 0.265625 0.703125 C 0.265625 1.34375 1.140625 1.84375 2.296875 1.84375 C 3.40625 1.84375 4.34375 1.375 4.34375 0.6875 C 4.34375 0.3125 4.171875 -0.078125 3.84375 -0.296875 C 3.34375 -0.609375 2.8125 -0.609375 1.96875 -0.609375 C 1.78125 -0.609375 1.5 -0.609375 1.421875 -0.625 C 1.171875 -0.6875 1 -0.921875 1 -1.203125 C 1 -1.359375 1.046875 -1.484375 1.125 -1.609375 Z M 2.03125 -1.5625 C 1.234375 -1.5625 1.234375 -2.453125 1.234375 -2.640625 C 1.234375 -2.890625 1.25 -3.1875 1.40625 -3.40625 C 1.546875 -3.59375 1.78125 -3.71875 2.03125 -3.71875 C 2.84375 -3.71875 2.84375 -2.859375 2.84375 -2.640625 C 2.84375 -2.4375 2.84375 -1.5625 2.03125 -1.5625 Z M 2.453125 -0.046875 C 2.734375 -0.046875 3.84375 -0.03125 3.84375 0.6875 C 3.84375 1.203125 3.140625 1.609375 2.3125 1.609375 C 1.421875 1.609375 0.765625 1.1875 0.765625 0.6875 C 0.765625 0.546875 0.859375 -0.046875 1.625 -0.046875 Z M 2.453125 -0.046875 "/>
</g>
<g id="glyph-2-3">
<path d="M 4.140625 -1.59375 L 3.890625 -1.59375 C 3.875 -1.46875 3.796875 -0.9375 3.6875 -0.796875 C 3.625 -0.71875 3.015625 -0.71875 2.828125 -0.71875 L 1.234375 -0.71875 L 2.125 -1.5625 C 3.59375 -2.828125 4.140625 -3.3125 4.140625 -4.21875 C 4.140625 -5.25 3.296875 -5.96875 2.1875 -5.96875 C 1.15625 -5.96875 0.453125 -5.15625 0.453125 -4.34375 C 0.453125 -3.890625 0.84375 -3.84375 0.921875 -3.84375 C 1.125 -3.84375 1.390625 -3.984375 1.390625 -4.3125 C 1.390625 -4.578125 1.203125 -4.78125 0.921875 -4.78125 C 0.875 -4.78125 0.859375 -4.78125 0.8125 -4.765625 C 1.03125 -5.40625 1.609375 -5.6875 2.09375 -5.6875 C 3 -5.6875 3.3125 -4.84375 3.3125 -4.21875 C 3.3125 -3.3125 2.625 -2.5625 2.203125 -2.09375 L 0.5625 -0.328125 C 0.453125 -0.21875 0.453125 -0.203125 0.453125 0 L 3.890625 0 Z M 4.140625 -1.59375 "/>
</g>
<g id="glyph-3-0">
<path d="M 4.40625 -3.625 C 4.078125 -3.5625 3.984375 -3.28125 3.984375 -3.140625 C 3.984375 -2.96875 4.109375 -2.8125 4.328125 -2.8125 C 4.578125 -2.8125 4.828125 -3.03125 4.828125 -3.34375 C 4.828125 -3.765625 4.375 -3.96875 3.953125 -3.96875 C 3.421875 -3.96875 3.109375 -3.484375 3 -3.296875 C 2.828125 -3.734375 2.4375 -3.96875 2 -3.96875 C 1.046875 -3.96875 0.515625 -2.8125 0.515625 -2.578125 C 0.515625 -2.5 0.578125 -2.46875 0.640625 -2.46875 C 0.71875 -2.46875 0.75 -2.515625 0.765625 -2.578125 C 1.046875 -3.46875 1.640625 -3.734375 1.984375 -3.734375 C 2.25 -3.734375 2.46875 -3.5625 2.46875 -3.140625 C 2.46875 -2.828125 2.09375 -1.390625 1.96875 -0.953125 C 1.90625 -0.6875 1.625 -0.125 1.140625 -0.125 C 0.953125 -0.125 0.765625 -0.1875 0.6875 -0.234375 C 0.921875 -0.28125 1.109375 -0.5 1.109375 -0.71875 C 1.109375 -0.953125 0.9375 -1.046875 0.765625 -1.046875 C 0.5 -1.046875 0.265625 -0.828125 0.265625 -0.515625 C 0.265625 -0.078125 0.75 0.09375 1.125 0.09375 C 1.65625 0.09375 1.953125 -0.328125 2.09375 -0.578125 C 2.3125 0.015625 2.84375 0.09375 3.078125 0.09375 C 4.046875 0.09375 4.5625 -1.0625 4.5625 -1.28125 C 4.5625 -1.328125 4.53125 -1.390625 4.453125 -1.390625 C 4.34375 -1.390625 4.34375 -1.359375 4.296875 -1.21875 C 4.09375 -0.578125 3.578125 -0.125 3.109375 -0.125 C 2.859375 -0.125 2.609375 -0.28125 2.609375 -0.71875 C 2.609375 -0.921875 2.734375 -1.40625 2.8125 -1.75 C 2.859375 -1.90625 3.09375 -2.875 3.109375 -2.9375 C 3.21875 -3.265625 3.484375 -3.734375 3.953125 -3.734375 C 4.109375 -3.734375 4.28125 -3.71875 4.40625 -3.625 Z M 4.40625 -3.625 "/>
</g>
<g id="glyph-3-1">
<path d="M 4.03125 -6.375 C 4.09375 -6.5 4.09375 -6.515625 4.09375 -6.53125 C 4.09375 -6.640625 4 -6.734375 3.90625 -6.734375 C 3.78125 -6.734375 3.734375 -6.65625 3.734375 -6.640625 L 0.5625 1.890625 C 0.515625 2.015625 0.515625 2.03125 0.515625 2.046875 C 0.515625 2.15625 0.59375 2.25 0.703125 2.25 C 0.796875 2.25 0.859375 2.203125 0.921875 2.03125 Z M 4.03125 -6.375 "/>
</g>
<g id="glyph-3-2">
<path d="M 1.234375 -2.046875 C 1.78125 -2.046875 2.359375 -2.046875 2.828125 -2.171875 C 3.671875 -2.375 3.828125 -2.875 3.828125 -3.1875 C 3.828125 -3.6875 3.359375 -3.96875 2.828125 -3.96875 C 1.78125 -3.96875 0.421875 -3.078125 0.421875 -1.546875 C 0.421875 -0.6875 0.921875 0.09375 1.890625 0.09375 C 3.234375 0.09375 3.984375 -0.828125 3.984375 -0.953125 C 3.984375 -1 3.921875 -1.078125 3.859375 -1.078125 C 3.828125 -1.078125 3.8125 -1.0625 3.734375 -0.96875 C 3.1875 -0.3125 2.375 -0.125 1.90625 -0.125 C 1.28125 -0.125 1.109375 -0.71875 1.109375 -1.171875 C 1.109375 -1.1875 1.109375 -1.5 1.234375 -2.046875 Z M 1.296875 -2.28125 C 1.6875 -3.6875 2.6875 -3.734375 2.828125 -3.734375 C 3.125 -3.734375 3.5 -3.59375 3.5 -3.1875 C 3.5 -2.28125 2.140625 -2.28125 1.296875 -2.28125 Z M 1.296875 -2.28125 "/>
</g>
<g id="glyph-4-0">
<path d="M 3.21875 -1.125 L 3 -1.125 C 2.984375 -1.03125 2.921875 -0.640625 2.84375 -0.578125 C 2.796875 -0.53125 2.3125 -0.53125 2.21875 -0.53125 L 1.109375 -0.53125 L 1.875 -1.15625 C 2.078125 -1.328125 2.609375 -1.703125 2.796875 -1.890625 C 2.96875 -2.0625 3.21875 -2.375 3.21875 -2.796875 C 3.21875 -3.546875 2.546875 -3.984375 1.734375 -3.984375 C 0.96875 -3.984375 0.4375 -3.46875 0.4375 -2.90625 C 0.4375 -2.609375 0.6875 -2.5625 0.75 -2.5625 C 0.90625 -2.5625 1.078125 -2.671875 1.078125 -2.890625 C 1.078125 -3.015625 1 -3.21875 0.734375 -3.21875 C 0.875 -3.515625 1.234375 -3.75 1.65625 -3.75 C 2.28125 -3.75 2.609375 -3.28125 2.609375 -2.796875 C 2.609375 -2.375 2.328125 -1.9375 1.921875 -1.546875 L 0.5 -0.25 C 0.4375 -0.1875 0.4375 -0.1875 0.4375 0 L 3.03125 0 Z M 3.21875 -1.125 "/>
</g>
<g id="glyph-5-0">
<path d="M 3.375 -2.359375 C 3.15625 -2.296875 3.109375 -2.125 3.109375 -2.03125 C 3.109375 -1.84375 3.265625 -1.796875 3.34375 -1.796875 C 3.53125 -1.796875 3.703125 -1.9375 3.703125 -2.171875 C 3.703125 -2.5 3.34375 -2.640625 3.046875 -2.640625 C 2.640625 -2.640625 2.40625 -2.328125 2.34375 -2.21875 C 2.265625 -2.375 2.03125 -2.640625 1.578125 -2.640625 C 0.890625 -2.640625 0.484375 -1.921875 0.484375 -1.71875 C 0.484375 -1.6875 0.515625 -1.640625 0.59375 -1.640625 C 0.6875 -1.640625 0.703125 -1.671875 0.71875 -1.71875 C 0.875 -2.203125 1.28125 -2.4375 1.5625 -2.4375 C 1.859375 -2.4375 1.953125 -2.25 1.953125 -2.046875 C 1.953125 -1.984375 1.953125 -1.921875 1.90625 -1.734375 C 1.765625 -1.1875 1.640625 -0.640625 1.609375 -0.5625 C 1.515625 -0.34375 1.296875 -0.140625 1.046875 -0.140625 C 1.015625 -0.140625 0.84375 -0.140625 0.703125 -0.234375 C 0.9375 -0.3125 0.96875 -0.5 0.96875 -0.546875 C 0.96875 -0.703125 0.84375 -0.78125 0.71875 -0.78125 C 0.5625 -0.78125 0.375 -0.65625 0.375 -0.40625 C 0.375 -0.0625 0.75 0.0625 1.03125 0.0625 C 1.375 0.0625 1.625 -0.171875 1.734375 -0.359375 C 1.859375 -0.109375 2.140625 0.0625 2.484375 0.0625 C 3.1875 0.0625 3.578125 -0.671875 3.578125 -0.859375 C 3.578125 -0.875 3.578125 -0.953125 3.46875 -0.953125 C 3.390625 -0.953125 3.375 -0.90625 3.359375 -0.84375 C 3.1875 -0.328125 2.765625 -0.140625 2.5 -0.140625 C 2.28125 -0.140625 2.125 -0.265625 2.125 -0.515625 C 2.125 -0.640625 2.140625 -0.765625 2.203125 -0.96875 L 2.390625 -1.75 C 2.453125 -1.984375 2.484375 -2.09375 2.609375 -2.234375 C 2.6875 -2.328125 2.84375 -2.4375 3.03125 -2.4375 C 3.0625 -2.4375 3.234375 -2.4375 3.375 -2.359375 Z M 3.375 -2.359375 "/>
</g>
</g>
<clipPath id="clip-0">
<path clip-rule="nonzero" d="M 0 87 L 121.640625 87 L 121.640625 89 L 0 89 Z M 0 87 "/>
</clipPath>
<clipPath id="clip-1">
<path clip-rule="nonzero" d="M 118 85 L 121.640625 85 L 121.640625 91 L 118 91 Z M 118 85 "/>
</clipPath>
<clipPath id="clip-2">
<path clip-rule="nonzero" d="M 9 53 L 121.640625 53 L 121.640625 118 L 9 118 Z M 9 53 "/>
</clipPath>
<clipPath id="clip-3">
<path clip-rule="nonzero" d="M 56 60 L 121.640625 60 L 121.640625 131 L 56 131 Z M 56 60 "/>
</clipPath>
<clipPath id="clip-4">
<path clip-rule="nonzero" d="M 14 134 L 52 134 L 52 153.410156 L 14 153.410156 Z M 14 134 "/>
</clipPath>
<clipPath id="clip-5">
<path clip-rule="nonzero" d="M 56 134 L 94 134 L 94 153.410156 L 56 153.410156 Z M 56 134 "/>
</clipPath>
</defs>
<path fill="none" stroke-width="0.3985" stroke-linecap="round" stroke-linejoin="miter" stroke="rgb(0%, 0%, 0%)" stroke-opacity="1" stroke-miterlimit="10" d="M -42.519219 -1.992438 L -42.519219 1.991937 " transform="matrix(1, 0, 0, -1, 60.82, 88.031)"/>
<path fill="none" stroke-width="0.3985" stroke-linecap="round" stroke-linejoin="miter" stroke="rgb(0%, 0%, 0%)" stroke-opacity="1" stroke-miterlimit="10" d="M -21.261406 -1.992438 L -21.261406 1.991937 " transform="matrix(1, 0, 0, -1, 60.82, 88.031)"/>
<path fill="none" stroke-width="0.3985" stroke-linecap="round" stroke-linejoin="miter" stroke="rgb(0%, 0%, 0%)" stroke-opacity="1" stroke-miterlimit="10" d="M 21.258125 -1.992438 L 21.258125 1.991937 " transform="matrix(1, 0, 0, -1, 60.82, 88.031)"/>
<path fill="none" stroke-width="0.3985" stroke-linecap="round" stroke-linejoin="miter" stroke="rgb(0%, 0%, 0%)" stroke-opacity="1" stroke-miterlimit="10" d="M 42.519844 -1.992438 L 42.519844 1.991937 " transform="matrix(1, 0, 0, -1, 60.82, 88.031)"/>
<path fill="none" stroke-width="0.3985" stroke-linecap="round" stroke-linejoin="miter" stroke="rgb(0%, 0%, 0%)" stroke-opacity="1" stroke-miterlimit="10" d="M -1.991875 -21.258063 L 1.9925 -21.258063 " transform="matrix(1, 0, 0, -1, 60.82, 88.031)"/>
<path fill="none" stroke-width="0.3985" stroke-linecap="round" stroke-linejoin="miter" stroke="rgb(0%, 0%, 0%)" stroke-opacity="1" stroke-miterlimit="10" d="M -1.991875 21.261469 L 1.9925 21.261469 " transform="matrix(1, 0, 0, -1, 60.82, 88.031)"/>
<path fill="none" stroke-width="0.3985" stroke-linecap="round" stroke-linejoin="miter" stroke="rgb(0%, 0%, 0%)" stroke-opacity="1" stroke-miterlimit="10" d="M -1.991875 42.519281 L 1.9925 42.519281 " transform="matrix(1, 0, 0, -1, 60.82, 88.031)"/>
<g clip-path="url(#clip-0)">
<path fill="none" stroke-width="0.3985" stroke-linecap="butt" stroke-linejoin="miter" stroke="rgb(0%, 0%, 0%)" stroke-opacity="1" stroke-miterlimit="10" d="M -60.620781 -0.00025 L 60.222969 -0.00025 " transform="matrix(1, 0, 0, -1, 60.82, 88.031)"/>
</g>
<g clip-path="url(#clip-1)">
<path fill="none" stroke-width="0.3985" stroke-linecap="round" stroke-linejoin="round" stroke="rgb(0%, 0%, 0%)" stroke-opacity="1" stroke-miterlimit="10" d="M -2.070805 2.390375 C -1.691899 0.956781 -0.848149 0.277094 -0.0004925 -0.00025 C -0.848149 -0.277594 -1.691899 -0.957281 -2.070805 -2.390875 " transform="matrix(1, 0, 0, -1, 121.24268, 88.031)"/>
</g>
<path fill="none" stroke-width="0.3985" stroke-linecap="butt" stroke-linejoin="miter" stroke="rgb(0%, 0%, 0%)" stroke-opacity="1" stroke-miterlimit="10" d="M 0.0003125 -41.660406 L 0.0003125 64.855219 " transform="matrix(1, 0, 0, -1, 60.82, 88.031)"/>
<path fill="none" stroke-width="0.3985" stroke-linecap="round" stroke-linejoin="round" stroke="rgb(0%, 0%, 0%)" stroke-opacity="1" stroke-miterlimit="10" d="M -2.072881 2.390313 C -1.693975 0.956719 -0.850225 0.277031 0.0013375 -0.0003125 C -0.850225 -0.277656 -1.693975 -0.957344 -2.072881 -2.390937 " transform="matrix(0, -1, -1, 0, 60.82, 22.9779)"/>
<path fill="none" stroke-width="0.11954" stroke-linecap="butt" stroke-linejoin="miter" stroke="rgb(54.998779%, 54.998779%, 54.998779%)" stroke-opacity="1" stroke-dasharray="0.69739 0.69739" stroke-miterlimit="10" d="M -1417.339531 -1417.340094 L 1417.340156 -1417.340094 M -1417.339531 -1388.992438 L 1417.340156 -1388.992438 M -1417.339531 -1360.648688 L 1417.340156 -1360.648688 M -1417.339531 -1332.301031 L 1417.340156 -1332.301031 M -1417.339531 -1303.953375 L 1417.340156 -1303.953375 M -1417.339531 -1275.605719 L 1417.340156 -1275.605719 M -1417.339531 -1247.258063 L 1417.340156 -1247.258063 M -1417.339531 -1218.914313 L 1417.340156 -1218.914313 M -1417.339531 -1190.566656 L 1417.340156 -1190.566656 M -1417.339531 -1162.219 L 1417.340156 -1162.219 M -1417.339531 -1133.871344 L 1417.340156 -1133.871344 M -1417.339531 -1105.523688 L 1417.340156 -1105.523688 M -1417.339531 -1077.179938 L 1417.340156 -1077.179938 M -1417.339531 -1048.832281 L 1417.340156 -1048.832281 M -1417.339531 -1020.484625 L 1417.340156 -1020.484625 M -1417.339531 -992.136969 L 1417.340156 -992.136969 M -1417.339531 -963.793219 L 1417.340156 -963.793219 M -1417.339531 -935.445563 L 1417.340156 -935.445563 M -1417.339531 -907.097906 L 1417.340156 -907.097906 M -1417.339531 -878.75025 L 1417.340156 -878.75025 M -1417.339531 -850.402594 L 1417.340156 -850.402594 M -1417.339531 -822.058844 L 1417.340156 -822.058844 M -1417.339531 -793.711188 L 1417.340156 -793.711188 M -1417.339531 -765.363531 L 1417.340156 -765.363531 M -1417.339531 -737.015875 L 1417.340156 -737.015875 M -1417.339531 -708.672125 L 1417.340156 -708.672125 M -1417.339531 -680.324469 L 1417.340156 -680.324469 M -1417.339531 -651.976813 L 1417.340156 -651.976813 M -1417.339531 -623.629156 L 1417.340156 -623.629156 M -1417.339531 -595.2815 L 1417.340156 -595.2815 M -1417.339531 -566.93775 L 1417.340156 -566.93775 M -1417.339531 -538.590094 L 1417.340156 -538.590094 M -1417.339531 -510.242438 L 1417.340156 -510.242438 M -1417.339531 -481.894781 L 1417.340156 -481.894781 M -1417.339531 -453.547125 L 1417.340156 -453.547125 M -1417.339531 -425.203375 L 1417.340156 -425.203375 M -1417.339531 -396.855719 L 1417.340156 -396.855719 M -1417.339531 -368.508063 L 1417.340156 -368.508063 M -1417.339531 -340.160406 L 1417.340156 -340.160406 M -1417.339531 -311.816656 L 1417.340156 -311.816656 M -1417.339531 -283.469 L 1417.340156 -283.469 M -1417.339531 -255.121344 L 1417.340156 -255.121344 M -1417.339531 -226.773688 L 1417.340156 -226.773688 M -1417.339531 -198.426031 L 1417.340156 -198.426031 M -1417.339531 -170.082281 L 1417.340156 -170.082281 M -1417.339531 -141.734625 L 1417.340156 -141.734625 M -1417.339531 -113.386969 L 1417.340156 -113.386969 M -1417.339531 -85.039313 L 1417.340156 -85.039313 M -1417.339531 -56.695563 L 1417.340156 -56.695563 M -1417.339531 -28.347906 L 1417.340156 -28.347906 M -1417.339531 -0.00025 L 1417.340156 -0.00025 M -1417.339531 28.347406 L 1417.340156 28.347406 M -1417.339531 56.695062 L 1417.340156 56.695062 M -1417.339531 85.038812 L 1417.340156 85.038812 M -1417.339531 113.386469 L 1417.340156 113.386469 M -1417.339531 141.734125 L 1417.340156 141.734125 M -1417.339531 170.081781 L 1417.340156 170.081781 M -1417.339531 198.429437 L 1417.340156 198.429437 M -1417.339531 226.773187 L 1417.340156 226.773187 M -1417.339531 255.120844 L 1417.340156 255.120844 M -1417.339531 283.4685 L 1417.340156 283.4685 M -1417.339531 311.816156 L 1417.340156 311.816156 M -1417.339531 340.159906 L 1417.340156 340.159906 M -1417.339531 368.507562 L 1417.340156 368.507562 M -1417.339531 396.855219 L 1417.340156 396.855219 M -1417.339531 425.202875 L 1417.340156 425.202875 M -1417.339531 453.550531 L 1417.340156 453.550531 M -1417.339531 481.894281 L 1417.340156 481.894281 M -1417.339531 510.241937 L 1417.340156 510.241937 M -1417.339531 538.589594 L 1417.340156 538.589594 M -1417.339531 566.93725 L 1417.340156 566.93725 M -1417.339531 595.284906 L 1417.340156 595.284906 M -1417.339531 623.628656 L 1417.340156 623.628656 M -1417.339531 651.976312 L 1417.340156 651.976312 M -1417.339531 680.323969 L 1417.340156 680.323969 M -1417.339531 708.671625 L 1417.340156 708.671625 M -1417.339531 737.015375 L 1417.340156 737.015375 M -1417.339531 765.363031 L 1417.340156 765.363031 M -1417.339531 793.710687 L 1417.340156 793.710687 M -1417.339531 822.058344 L 1417.340156 822.058344 M -1417.339531 850.406 L 1417.340156 850.406 M -1417.339531 878.74975 L 1417.340156 878.74975 M -1417.339531 907.097406 L 1417.340156 907.097406 M -1417.339531 935.445062 L 1417.340156 935.445062 M -1417.339531 963.792719 L 1417.340156 963.792719 M -1417.339531 992.136469 L 1417.340156 992.136469 M -1417.339531 1020.484125 L 1417.340156 1020.484125 M -1417.339531 1048.831781 L 1417.340156 1048.831781 M -1417.339531 1077.179437 L 1417.340156 1077.179437 M -1417.339531 1105.527094 L 1417.340156 1105.527094 M -1417.339531 1133.870844 L 1417.340156 1133.870844 M -1417.339531 1162.2185 L 1417.340156 1162.2185 M -1417.339531 1190.566156 L 1417.340156 1190.566156 M -1417.339531 1218.913812 L 1417.340156 1218.913812 M -1417.339531 1247.261469 L 1417.340156 1247.261469 M -1417.339531 1275.605219 L 1417.340156 1275.605219 M -1417.339531 1303.952875 L 1417.340156 1303.952875 M -1417.339531 1332.300531 L 1417.340156 1332.300531 M -1417.339531 1360.648187 L 1417.340156 1360.648187 M -1417.339531 1388.991937 L 1417.340156 1388.991937 M -1417.339531 1417.331781 L 1417.340156 1417.331781 M -1417.339531 -1417.340094 L -1417.339531 1417.339594 M -1388.991875 -1417.340094 L -1388.991875 1417.339594 M -1360.648125 -1417.340094 L -1360.648125 1417.339594 M -1332.300469 -1417.340094 L -1332.300469 1417.339594 M -1303.952812 -1417.340094 L -1303.952812 1417.339594 M -1275.605156 -1417.340094 L -1275.605156 1417.339594 M -1247.261406 -1417.340094 L -1247.261406 1417.339594 M -1218.91375 -1417.340094 L -1218.91375 1417.339594 M -1190.566094 -1417.340094 L -1190.566094 1417.339594 M -1162.218437 -1417.340094 L -1162.218437 1417.339594 M -1133.870781 -1417.340094 L -1133.870781 1417.339594 M -1105.527031 -1417.340094 L -1105.527031 1417.339594 M -1077.179375 -1417.340094 L -1077.179375 1417.339594 M -1048.831719 -1417.340094 L -1048.831719 1417.339594 M -1020.484063 -1417.340094 L -1020.484063 1417.339594 M -992.136406 -1417.340094 L -992.136406 1417.339594 M -963.792656 -1417.340094 L -963.792656 1417.339594 M -935.445 -1417.340094 L -935.445 1417.339594 M -907.097344 -1417.340094 L -907.097344 1417.339594 M -878.749688 -1417.340094 L -878.749688 1417.339594 M -850.405938 -1417.340094 L -850.405938 1417.339594 M -822.058281 -1417.340094 L -822.058281 1417.339594 M -793.710625 -1417.340094 L -793.710625 1417.339594 M -765.362969 -1417.340094 L -765.362969 1417.339594 M -737.015313 -1417.340094 L -737.015313 1417.339594 M -708.671563 -1417.340094 L -708.671563 1417.339594 M -680.323906 -1417.340094 L -680.323906 1417.339594 M -651.97625 -1417.340094 L -651.97625 1417.339594 M -623.628594 -1417.340094 L -623.628594 1417.339594 M -595.284844 -1417.340094 L -595.284844 1417.339594 M -566.937188 -1417.340094 L -566.937188 1417.339594 M -538.589531 -1417.340094 L -538.589531 1417.339594 M -510.241875 -1417.340094 L -510.241875 1417.339594 M -481.894219 -1417.340094 L -481.894219 1417.339594 M -453.550469 -1417.340094 L -453.550469 1417.339594 M -425.202812 -1417.340094 L -425.202812 1417.339594 M -396.855156 -1417.340094 L -396.855156 1417.339594 M -368.5075 -1417.340094 L -368.5075 1417.339594 M -340.159844 -1417.340094 L -340.159844 1417.339594 M -311.816094 -1417.340094 L -311.816094 1417.339594 M -283.468437 -1417.340094 L -283.468437 1417.339594 M -255.120781 -1417.340094 L -255.120781 1417.339594 M -226.773125 -1417.340094 L -226.773125 1417.339594 M -198.429375 -1417.340094 L -198.429375 1417.339594 M -170.081719 -1417.340094 L -170.081719 1417.339594 M -141.734062 -1417.340094 L -141.734062 1417.339594 M -113.386406 -1417.340094 L -113.386406 1417.339594 M -85.03875 -1417.340094 L -85.03875 1417.339594 M -56.695 -1417.340094 L -56.695 1417.339594 M -28.347344 -1417.340094 L -28.347344 1417.339594 M 0.0003125 -1417.340094 L 0.0003125 1417.339594 M 28.347969 -1417.340094 L 28.347969 1417.339594 M 56.691719 -1417.340094 L 56.691719 1417.339594 M 85.039375 -1417.340094 L 85.039375 1417.339594 M 113.387031 -1417.340094 L 113.387031 1417.339594 M 141.734688 -1417.340094 L 141.734688 1417.339594 M 170.082344 -1417.340094 L 170.082344 1417.339594 M 198.426094 -1417.340094 L 198.426094 1417.339594 M 226.77375 -1417.340094 L 226.77375 1417.339594 M 255.121406 -1417.340094 L 255.121406 1417.339594 M 283.469063 -1417.340094 L 283.469063 1417.339594 M 311.816719 -1417.340094 L 311.816719 1417.339594 M 340.160469 -1417.340094 L 340.160469 1417.339594 M 368.508125 -1417.340094 L 368.508125 1417.339594 M 396.855781 -1417.340094 L 396.855781 1417.339594 M 425.203438 -1417.340094 L 425.203438 1417.339594 M 453.547188 -1417.340094 L 453.547188 1417.339594 M 481.894844 -1417.340094 L 481.894844 1417.339594 M 510.2425 -1417.340094 L 510.2425 1417.339594 M 538.590156 -1417.340094 L 538.590156 1417.339594 M 566.937812 -1417.340094 L 566.937812 1417.339594 M 595.281562 -1417.340094 L 595.281562 1417.339594 M 623.629219 -1417.340094 L 623.629219 1417.339594 M 651.976875 -1417.340094 L 651.976875 1417.339594 M 680.324531 -1417.340094 L 680.324531 1417.339594 M 708.672187 -1417.340094 L 708.672187 1417.339594 M 737.015937 -1417.340094 L 737.015937 1417.339594 M 765.363594 -1417.340094 L 765.363594 1417.339594 M 793.71125 -1417.340094 L 793.71125 1417.339594 M 822.058906 -1417.340094 L 822.058906 1417.339594 M 850.402656 -1417.340094 L 850.402656 1417.339594 M 878.750312 -1417.340094 L 878.750312 1417.339594 M 907.097969 -1417.340094 L 907.097969 1417.339594 M 935.445625 -1417.340094 L 935.445625 1417.339594 M 963.793281 -1417.340094 L 963.793281 1417.339594 M 992.137031 -1417.340094 L 992.137031 1417.339594 M 1020.484687 -1417.340094 L 1020.484687 1417.339594 M 1048.832344 -1417.340094 L 1048.832344 1417.339594 M 1077.18 -1417.340094 L 1077.18 1417.339594 M 1105.52375 -1417.340094 L 1105.52375 1417.339594 M 1133.871406 -1417.340094 L 1133.871406 1417.339594 M 1162.219063 -1417.340094 L 1162.219063 1417.339594 M 1190.566719 -1417.340094 L 1190.566719 1417.339594 M 1218.914375 -1417.340094 L 1218.914375 1417.339594 M 1247.258125 -1417.340094 L 1247.258125 1417.339594 M 1275.605781 -1417.340094 L 1275.605781 1417.339594 M 1303.953438 -1417.340094 L 1303.953438 1417.339594 M 1332.301094 -1417.340094 L 1332.301094 1417.339594 M 1360.64875 -1417.340094 L 1360.64875 1417.339594 M 1388.9925 -1417.340094 L 1388.9925 1417.339594 M 1417.332344 -1417.340094 L 1417.332344 1417.339594 " transform="matrix(1, 0, 0, -1, 60.82, 88.031)"/>
<path fill="none" stroke-width="0.59776" stroke-linecap="butt" stroke-linejoin="miter" stroke="rgb(0%, 0%, 0%)" stroke-opacity="1" stroke-dasharray="2.98885 0.89665 0.89665 0.89665" stroke-miterlimit="10" d="M -53.148125 1.741937 C -53.148125 1.741937 -50.909844 1.93725 -50.050469 2.019281 C -49.191094 2.101312 -47.808281 2.238031 -46.948906 2.335687 C -46.089531 2.429437 -44.710625 2.5935 -43.847344 2.702875 C -42.987969 2.81225 -41.609063 2.99975 -40.749688 3.12475 C -39.890313 3.253656 -38.5075 3.4685 -37.648125 3.616937 C -36.78875 3.765375 -35.409844 4.015375 -34.546563 4.18725 C -33.687188 4.359125 -32.308281 4.648187 -31.448906 4.8435 C -30.585625 5.038812 -29.206719 5.37475 -28.347344 5.601312 C -27.487969 5.831781 -26.109063 6.2185 -25.245781 6.484125 C -24.386406 6.745844 -23.0075 7.198969 -22.148125 7.503656 C -21.284844 7.808344 -19.905938 8.327875 -19.046563 8.679437 C -18.187188 9.034906 -16.808281 9.636469 -15.945 10.042719 C -15.085625 10.452875 -13.706719 11.148187 -12.847344 11.620844 C -11.984063 12.0935 -10.605156 12.898187 -9.745781 13.445062 C -8.886406 13.991937 -7.5075 14.925531 -6.644219 15.554437 C -5.784844 16.18725 -4.405938 17.269281 -3.546563 17.99975 C -2.683281 18.730219 -1.304375 19.980219 -0.445 20.823969 C 0.414375 21.671625 1.797187 23.109125 2.656562 24.089594 C 3.515937 25.066156 4.894844 26.738031 5.754219 27.870844 C 6.6175 28.99975 7.996406 30.93725 8.855781 32.245844 C 9.715156 33.554437 11.097969 35.792719 11.957344 37.308344 C 12.816719 38.820062 14.195625 41.409906 15.055 43.163812 C 15.918281 44.917719 17.297187 47.913812 18.156562 49.941156 C 19.015937 51.9685 21.258125 57.781 21.258125 57.781 " transform="matrix(1, 0, 0, -1, 60.82, 88.031)"/>
<path fill="none" stroke-width="0.59776" stroke-linecap="butt" stroke-linejoin="miter" stroke="rgb(0%, 0%, 0%)" stroke-opacity="1" stroke-dasharray="0.89665 0.89665" stroke-miterlimit="10" d="M -31.890313 47.835687 C -31.890313 47.835687 -29.968438 42.222406 -29.234063 40.195062 C -28.495781 38.167719 -27.312188 35.06225 -26.573906 33.2185 C -25.835625 31.37475 -24.655938 28.566156 -23.917656 26.906 C -23.179375 25.24975 -21.995781 22.734125 -21.261406 21.261469 C -20.523125 19.784906 -19.339531 17.566156 -18.60125 16.277094 C -17.866875 14.988031 -16.683281 13.066156 -15.945 11.956781 C -15.206719 10.851312 -14.023125 9.226312 -13.28875 8.304437 C -12.550469 7.382562 -11.366875 6.050531 -10.628594 5.316156 C -9.894219 4.577875 -8.710625 3.542719 -7.972344 2.988031 C -7.234063 2.43725 -6.050469 1.698969 -5.316094 1.327875 C -4.577813 0.960687 -3.394219 0.515375 -2.655938 0.331781 C -1.921563 0.148187 -0.737969 -0.00025 0.0003125 -0.00025 C 0.738594 -0.00025 1.918281 0.148187 2.656562 0.331781 C 3.394844 0.515375 4.578437 0.960687 5.316719 1.327875 C 6.051094 1.698969 7.234687 2.43725 7.972969 2.988031 C 8.71125 3.542719 9.890937 4.577875 10.629219 5.316156 C 11.3675 6.050531 12.551094 7.382562 13.289375 8.304437 C 14.02375 9.226312 15.207344 10.851312 15.945625 11.956781 C 16.683906 13.066156 17.863594 14.988031 18.601875 16.277094 C 19.340156 17.566156 20.52375 19.784906 21.258125 21.261469 C 21.996406 22.734125 23.18 25.24975 23.918281 26.906 C 24.656562 28.566156 25.83625 31.37475 26.574531 33.2185 C 27.312812 35.06225 28.496406 38.167719 29.230781 40.195062 C 29.969062 42.222406 31.890937 47.835687 31.890937 47.835687 " transform="matrix(1, 0, 0, -1, 60.82, 88.031)"/>
<g clip-path="url(#clip-2)">
<path fill="none" stroke-width="0.59776" stroke-linecap="butt" stroke-linejoin="miter" stroke="rgb(0%, 0%, 0%)" stroke-opacity="1" stroke-dasharray="2.98885 1.19554" stroke-miterlimit="10" d="M -42.519219 -21.258063 C -42.519219 -21.258063 -39.640313 -19.820563 -38.534844 -19.265875 C -37.429375 -18.715094 -35.652031 -17.828375 -34.546563 -17.273688 C -33.441094 -16.719 -31.667656 -15.832281 -30.562188 -15.2815 C -29.456719 -14.726813 -27.679375 -13.840094 -26.573906 -13.289313 C -25.468438 -12.734625 -23.695 -11.847906 -22.589531 -11.293219 C -21.484063 -10.742438 -19.706719 -9.855719 -18.60125 -9.301031 C -17.495781 -8.746344 -15.722344 -7.859625 -14.616875 -7.308844 C -13.511406 -6.754156 -11.737969 -5.867438 -10.628594 -5.316656 C -9.523125 -4.761969 -7.749688 -3.87525 -6.644219 -3.320563 C -5.53875 -2.769781 -3.765313 -1.883063 -2.655938 -1.328375 C -1.550469 -0.777594 0.222969 0.113031 1.328437 0.663812 C 2.433906 1.2185 4.207344 2.105219 5.316719 2.656 C 6.422187 3.210687 8.195625 4.097406 9.301094 4.652094 C 10.406562 5.202875 12.18 6.089594 13.289375 6.644281 C 14.394844 7.195062 16.168281 8.085687 17.27375 8.636469 C 18.379219 9.191156 20.152656 10.077875 21.258125 10.628656 C 22.3675 11.183344 24.140937 12.070062 25.246406 12.62475 C 26.351875 13.175531 28.125312 14.06225 29.230781 14.616937 C 30.340156 15.167719 32.113594 16.054437 33.219062 16.609125 C 34.324531 17.163812 36.097969 18.050531 37.203437 18.601312 C 38.312812 19.156 40.08625 20.042719 41.191719 20.597406 C 42.297187 21.148187 44.070625 22.034906 45.176094 22.589594 C 46.285469 23.140375 48.058906 24.027094 49.164375 24.581781 C 50.269844 25.136469 53.14875 26.573969 53.14875 26.573969 " transform="matrix(1, 0, 0, -1, 60.82, 88.031)"/>
</g>
<g clip-path="url(#clip-3)">
<path fill="none" stroke-width="0.59776" stroke-linecap="butt" stroke-linejoin="miter" stroke="rgb(0%, 0%, 0%)" stroke-opacity="1" stroke-miterlimit="10" d="M 4.250312 -34.191656 C 4.250312 -34.191656 5.722969 -27.871344 6.289375 -25.894781 C 6.855781 -23.914313 7.762031 -21.402594 8.324531 -19.929938 C 8.890937 -18.457281 9.797187 -16.453375 10.363594 -15.2815 C 10.93 -14.105719 11.83625 -12.43775 12.402656 -11.461188 C 12.965156 -10.480719 13.871406 -9.06275 14.437812 -8.226813 C 15.004219 -7.386969 15.910469 -6.152594 16.476875 -5.422125 C 17.039375 -4.68775 17.945625 -3.594 18.512031 -2.941656 C 19.078437 -2.293219 19.984687 -1.31275 20.551094 -0.726813 C 21.113594 -0.136969 22.019844 0.753656 22.58625 1.284906 C 23.152656 1.820062 24.058906 2.632562 24.625312 3.120844 C 25.187812 3.613031 26.097969 4.359125 26.660469 4.81225 C 27.226875 5.265375 28.133125 5.960687 28.699531 6.378656 C 29.265937 6.796625 30.172187 7.445062 30.734687 7.835687 C 31.301094 8.226312 32.207344 8.831781 32.77375 9.198969 C 33.340156 9.566156 34.246406 10.136469 34.808906 10.480219 C 35.375312 10.827875 36.281562 11.363031 36.847969 11.691156 C 37.414375 12.019281 38.320625 12.527094 38.883125 12.835687 C 39.449531 13.144281 40.355781 13.62475 40.922187 13.917719 C 41.488594 14.214594 42.394844 14.675531 42.96125 14.952875 C 43.52375 15.234125 44.43 15.671625 44.996406 15.941156 C 45.562812 16.206781 46.469062 16.62475 47.035469 16.882562 C 47.597969 17.136469 48.504219 17.538812 49.070625 17.781 C 49.637031 18.027094 50.543281 18.413812 51.109687 18.648187 C 51.672187 18.882562 53.144844 19.480219 53.144844 19.480219 " transform="matrix(1, 0, 0, -1, 60.82, 88.031)"/>
</g>
<g fill="rgb(0%, 0%, 0%)" fill-opacity="1">
<use xlink:href="#glyph-0-0" x="12.89" y="97.816"/>
</g>
<g fill="rgb(0%, 0%, 0%)" fill-opacity="1">
<use xlink:href="#glyph-1-0" x="19.477" y="97.816"/>
</g>
<g fill="rgb(0%, 0%, 0%)" fill-opacity="1">
<use xlink:href="#glyph-0-0" x="34.15" y="97.816"/>
</g>
<g fill="rgb(0%, 0%, 0%)" fill-opacity="1">
<use xlink:href="#glyph-1-1" x="40.737" y="97.816"/>
</g>
<g fill="rgb(0%, 0%, 0%)" fill-opacity="1">
<use xlink:href="#glyph-1-1" x="79.963" y="97.816"/>
</g>
<g fill="rgb(0%, 0%, 0%)" fill-opacity="1">
<use xlink:href="#glyph-1-0" x="101.223" y="97.816"/>
</g>
<g fill="rgb(0%, 0%, 0%)" fill-opacity="1">
<use xlink:href="#glyph-0-0" x="45.351" y="111.444"/>
</g>
<g fill="rgb(0%, 0%, 0%)" fill-opacity="1">
<use xlink:href="#glyph-1-1" x="51.938" y="111.444"/>
</g>
<g fill="rgb(0%, 0%, 0%)" fill-opacity="1">
<use xlink:href="#glyph-1-2" x="53.93" y="95.823"/>
</g>
<g fill="rgb(0%, 0%, 0%)" fill-opacity="1">
<use xlink:href="#glyph-1-1" x="51.937" y="69.339"/>
</g>
<g fill="rgb(0%, 0%, 0%)" fill-opacity="1">
<use xlink:href="#glyph-1-0" x="51.937" y="48.079"/>
</g>
<g fill="rgb(0%, 0%, 0%)" fill-opacity="1">
<use xlink:href="#glyph-2-0" x="40.284" y="11.04"/>
<use xlink:href="#glyph-2-1" x="42.839424" y="11.04"/>
<use xlink:href="#glyph-2-2" x="47.439187" y="11.04"/>
</g>
<g fill="rgb(0%, 0%, 0%)" fill-opacity="1">
<use xlink:href="#glyph-3-0" x="53.723" y="11.04"/>
</g>
<path fill="none" stroke-width="0.59776" stroke-linecap="butt" stroke-linejoin="miter" stroke="rgb(0%, 0%, 0%)" stroke-opacity="1" stroke-miterlimit="10" d="M -19.924187 -0.00153125 C -19.924187 -0.00153125 -17.017937 1.467219 -14.943719 1.287531 C -12.8695 1.107844 -7.053094 -1.110906 -4.982781 -1.286688 C -2.908562 -1.466375 0.00159375 -0.00153125 0.00159375 -0.00153125 " transform="matrix(1, 0, 0, -1, 35.307, 8.893)"/>
<g fill="rgb(0%, 0%, 0%)" fill-opacity="1">
<use xlink:href="#glyph-3-0" x="92.118" y="11.04"/>
<use xlink:href="#glyph-3-1" x="97.336445" y="11.04"/>
</g>
<g fill="rgb(0%, 0%, 0%)" fill-opacity="1">
<use xlink:href="#glyph-2-3" x="101.949" y="11.04"/>
</g>
<path fill="none" stroke-width="0.59776" stroke-linecap="butt" stroke-linejoin="miter" stroke="rgb(0%, 0%, 0%)" stroke-opacity="1" stroke-dasharray="2.98885 1.19554" stroke-miterlimit="10" d="M -19.926156 -0.00153125 C -19.926156 -0.00153125 -17.016 1.467219 -14.945687 1.287531 C -12.871469 1.107844 -7.055062 -1.110906 -4.980844 -1.286688 C -2.906625 -1.466375 -0.000375 -0.00153125 -0.000375 -0.00153125 " transform="matrix(1, 0, 0, -1, 87.141, 8.893)"/>
<g fill="rgb(0%, 0%, 0%)" fill-opacity="1">
<use xlink:href="#glyph-3-0" x="47.671" y="146.852"/>
</g>
<g fill="rgb(0%, 0%, 0%)" fill-opacity="1">
<use xlink:href="#glyph-4-0" x="52.894" y="143.043"/>
</g>
<g clip-path="url(#clip-4)">
<path fill="none" stroke-width="0.59776" stroke-linecap="butt" stroke-linejoin="miter" stroke="rgb(0%, 0%, 0%)" stroke-opacity="1" stroke-dasharray="0.89665 0.89665" stroke-miterlimit="10" d="M -19.924469 0.001875 C -19.924469 0.001875 -17.018219 1.466719 -14.944 1.287031 C -12.869781 1.11125 -7.053375 -1.1075 -4.983063 -1.287188 C -2.908844 -1.466875 0.0013125 0.001875 0.0013125 0.001875 " transform="matrix(1, 0, 0, -1, 42.694, 144.705)"/>
</g>
<g fill="rgb(0%, 0%, 0%)" fill-opacity="1">
<use xlink:href="#glyph-3-2" x="90.217" y="146.852"/>
</g>
<g fill="rgb(0%, 0%, 0%)" fill-opacity="1">
<use xlink:href="#glyph-5-0" x="94.501" y="143.043"/>
</g>
<g clip-path="url(#clip-5)">
<path fill="none" stroke-width="0.59776" stroke-linecap="butt" stroke-linejoin="miter" stroke="rgb(0%, 0%, 0%)" stroke-opacity="1" stroke-dasharray="2.98885 0.89665 0.89665 0.89665" stroke-miterlimit="10" d="M -19.923594 0.001875 C -19.923594 0.001875 -17.017344 1.466719 -14.943125 1.287031 C -12.868906 1.11125 -7.056406 -1.1075 -4.982188 -1.287188 C -2.907969 -1.466875 -0.00171875 0.001875 -0.00171875 0.001875 " transform="matrix(1, 0, 0, -1, 85.24, 144.705)"/>
</g>
</svg></svg>