<svg class="tikz-render-svg" xmlns="http://www.w3.org/2000/svg" viewBox="-52.343355 -325.167151 710.417761 466.355196">
  <rect class="tikz-background" x="-52.343355" y="-325.167151" width="710.417761" height="466.355196" fill="white" />
  <path d="M -30 0 L 555 0 L 555 -309 L -30 -309 Z" stroke="none" fill="none" stroke-width="1.4058392143307286" />
  <path d="M 0 17.5 L 500 17.5" stroke="rgb(128 128 128)" fill="none" stroke-width="1.4058392143307286" stroke-linecap="butt" stroke-linejoin="miter" />
  <path d="M -17.5 0 L -17.5 -309" stroke="rgb(128 128 128)" fill="none" stroke-width="1.4058392143307286" stroke-linecap="butt" stroke-linejoin="miter" />
  <path d="M 0 0 L 500 0" stroke="rgb(191 191 191)" fill="none" stroke-width="1.4058392143307286" stroke-linecap="square" stroke-linejoin="miter" />
  <path d="M 0 -309 L 500 -309" stroke="rgb(191 191 191)" fill="none" stroke-width="1.4058392143307286" stroke-linecap="square" stroke-linejoin="miter" />
  <path d="M 0 0 L 0 -309" stroke="rgb(191 191 191)" fill="none" stroke-width="1.4058392143307286" stroke-linecap="square" stroke-linejoin="miter" />
  <path d="M 500 0 L 500 -309" stroke="rgb(191 191 191)" fill="none" stroke-width="1.4058392143307286" stroke-linecap="square" stroke-linejoin="miter" />
  <path d="M 0 17.5 L 0 24.5" stroke="rgb(128 128 128)" fill="none" stroke-width="1.4058392143307286" stroke-linecap="butt" stroke-linejoin="miter" />
  <text x="0" y="47.314155" fill="black" text-anchor="middle" dominant-baseline="middle" xml:space="preserve" font-size="28.116784" font-family="KaTeX_Main, 'Times New Roman', Times, serif">0</text>
  <path d="M 100 17.5 L 100 24.5" stroke="rgb(128 128 128)" fill="none" stroke-width="1.4058392143307286" stroke-linecap="butt" stroke-linejoin="miter" />
  <text x="100" y="47.314155" fill="black" text-anchor="middle" dominant-baseline="middle" xml:space="preserve" font-size="28.116784" font-family="KaTeX_Main, 'Times New Roman', Times, serif">0.2</text>
  <path d="M 200 17.5 L 200 24.5" stroke="rgb(128 128 128)" fill="none" stroke-width="1.4058392143307286" stroke-linecap="butt" stroke-linejoin="miter" />
  <text x="200" y="47.314155" fill="black" text-anchor="middle" dominant-baseline="middle" xml:space="preserve" font-size="28.116784" font-family="KaTeX_Main, 'Times New Roman', Times, serif">0.4</text>
  <path d="M 300 17.5 L 300 24.5" stroke="rgb(128 128 128)" fill="none" stroke-width="1.4058392143307286" stroke-linecap="butt" stroke-linejoin="miter" />
  <text x="300" y="47.314155" fill="black" text-anchor="middle" dominant-baseline="middle" xml:space="preserve" font-size="28.116784" font-family="KaTeX_Main, 'Times New Roman', Times, serif">0.6</text>
  <path d="M 400 17.5 L 400 24.5" stroke="rgb(128 128 128)" fill="none" stroke-width="1.4058392143307286" stroke-linecap="butt" stroke-linejoin="miter" />
  <text x="400" y="47.314155" fill="black" text-anchor="middle" dominant-baseline="middle" xml:space="preserve" font-size="28.116784" font-family="KaTeX_Main, 'Times New Roman', Times, serif">0.8</text>
  <path d="M 500 17.5 L 500 24.5" stroke="rgb(128 128 128)" fill="none" stroke-width="1.4058392143307286" stroke-linecap="butt" stroke-linejoin="miter" />
  <text x="500" y="47.314155" fill="black" text-anchor="middle" dominant-baseline="middle" xml:space="preserve" font-size="28.116784" font-family="KaTeX_Main, 'Times New Roman', Times, serif">1</text>
  <path d="M -17.5 0 L -24.5 0" stroke="rgb(128 128 128)" fill="none" stroke-width="1.4058392143307286" stroke-linecap="butt" stroke-linejoin="miter" />
  <text x="-45.314155" y="0" fill="black" text-anchor="middle" dominant-baseline="middle" xml:space="preserve" font-size="28.116784" font-family="KaTeX_Main, 'Times New Roman', Times, serif">0</text>
  <path d="M -17.5 -77.3 L -24.5 -77.3" stroke="rgb(128 128 128)" fill="none" stroke-width="1.4058392143307286" stroke-linecap="butt" stroke-linejoin="miter" />
  <text x="-45.314155" y="-77.3" fill="black" text-anchor="middle" dominant-baseline="middle" xml:space="preserve" font-size="28.116784" font-family="KaTeX_Main, 'Times New Roman', Times, serif">2</text>
  <path d="M -17.5 -154.5 L -24.5 -154.5" stroke="rgb(128 128 128)" fill="none" stroke-width="1.4058392143307286" stroke-linecap="butt" stroke-linejoin="miter" />
  <text x="-45.314155" y="-154.5" fill="black" text-anchor="middle" dominant-baseline="middle" xml:space="preserve" font-size="28.116784" font-family="KaTeX_Main, 'Times New Roman', Times, serif">4</text>
  <path d="M -17.5 -231.8 L -24.5 -231.8" stroke="rgb(128 128 128)" fill="none" stroke-width="1.4058392143307286" stroke-linecap="butt" stroke-linejoin="miter" />
  <text x="-45.314155" y="-231.8" fill="black" text-anchor="middle" dominant-baseline="middle" xml:space="preserve" font-size="28.116784" font-family="KaTeX_Main, 'Times New Roman', Times, serif">6</text>
  <path d="M -17.5 -309 L -24.5 -309" stroke="rgb(128 128 128)" fill="none" stroke-width="1.4058392143307286" stroke-linecap="butt" stroke-linejoin="miter" />
  <text x="-45.314155" y="-309" fill="black" text-anchor="middle" dominant-baseline="middle" xml:space="preserve" font-size="28.116784" font-family="KaTeX_Main, 'Times New Roman', Times, serif">8</text>
  <path d="M 0 0 C 0 0 90.3 -7 125 -9.7 C 159.7 -12.3 215.3 -16.6 250 -19.3 C 284.7 -22 340.3 -26.3 375 -29 C 409.7 -31.6 500 -38.6 500 -38.6" stroke="rgb(20 80 204)" fill="none" stroke-width="2.108758821496093" stroke-linecap="butt" stroke-linejoin="miter" />
  <path d="M 0 -38.6 C 0 -38.6 90.3 -45.6 125 -48.3 C 159.7 -51 215.3 -55.3 250 -57.9 C 284.7 -60.6 340.3 -64.9 375 -67.6 C 409.7 -70.3 500 -77.3 500 -77.3" stroke="rgb(196 20 204)" fill="none" stroke-width="2.108758821496093" stroke-linecap="butt" stroke-linejoin="miter" />
  <path d="M 0 -77.3 C 0 -77.3 90.3 -84.2 125 -86.9 C 159.7 -89.6 215.3 -93.9 250 -96.6 C 284.7 -99.2 340.3 -103.5 375 -106.2 C 409.7 -108.9 500 -115.9 500 -115.9" stroke="rgb(204 63 20)" fill="none" stroke-width="2.108758821496093" stroke-linecap="butt" stroke-linejoin="miter" />
  <path d="M 0 -115.9 C 0 -115.9 90.3 -122.9 125 -125.5 C 159.7 -128.2 215.3 -132.5 250 -135.2 C 284.7 -137.9 340.3 -142.2 375 -144.8 C 409.7 -147.5 500 -154.5 500 -154.5" stroke="rgb(110 204 20)" fill="none" stroke-width="2.108758821496093" stroke-linecap="butt" stroke-linejoin="miter" />
  <path d="M 0 -154.5 C 0 -154.5 90.3 -161.5 125 -164.2 C 159.7 -166.8 215.3 -171.1 250 -173.8 C 284.7 -176.5 340.3 -180.8 375 -183.5 C 409.7 -186.1 500 -193.1 500 -193.1" stroke="rgb(20 204 165)" fill="none" stroke-width="2.108758821496093" stroke-linecap="butt" stroke-linejoin="miter" />
  <path d="M 0 -193.1 C 0 -193.1 90.3 -200.1 125 -202.8 C 159.7 -205.5 215.3 -209.8 250 -212.4 C 284.7 -215.1 340.3 -219.4 375 -222.1 C 409.7 -224.8 500 -231.8 500 -231.8" stroke="rgb(33 20 204)" fill="none" stroke-width="2.108758821496093" stroke-linecap="butt" stroke-linejoin="miter" />
  <path d="M 0 -231.8 C 0 -231.8 90.3 -238.7 125 -241.4 C 159.7 -244.1 215.3 -248.4 250 -251.1 C 284.7 -253.7 340.3 -258 375 -260.7 C 409.7 -263.4 500 -270.4 500 -270.4" stroke="rgb(204 20 140)" fill="none" stroke-width="2.108758821496093" stroke-linecap="butt" stroke-linejoin="miter" />
  <path d="M 0 -270.4 C 0 -270.4 90.3 -277.4 125 -280 C 159.7 -282.7 215.3 -287 250 -289.7 C 284.7 -292.4 340.3 -296.7 375 -299.3 C 409.7 -302 500 -309 500 -309" stroke="rgb(204 135 20)" fill="none" stroke-width="2.108758821496093" stroke-linecap="butt" stroke-linejoin="miter" />
  <path d="M 552.5 -147.4 C 555.5 -148.3 561.3 -153.5 570.2 -152.6 C 578.9 -151.8 596.6 -143 605.4 -142.1 C 614.2 -141.3 620.1 -146.5 623 -147.4" stroke="rgb(20 80 204)" fill="none" stroke-width="2.108758821496093" stroke-linecap="butt" stroke-linejoin="miter" />
  <text x="640.5" y="-147.4" fill="black" text-anchor="start" dominant-baseline="middle" xml:space="preserve" font-size="31.631382" font-family="KaTeX_Main, 'Times New Roman', Times, serif">a</text>
  <path d="M 552.5 -108.8 C 555.5 -109.6 561.3 -114.9 570.2 -114 C 578.9 -113.2 596.6 -104.4 605.4 -103.5 C 614.2 -102.6 620.1 -107.9 623 -108.8" stroke="rgb(196 20 204)" fill="none" stroke-width="2.108758821496093" stroke-linecap="butt" stroke-linejoin="miter" />
  <text x="640.5" y="-108.8" fill="black" text-anchor="start" dominant-baseline="middle" xml:space="preserve" font-size="31.631382" font-family="KaTeX_Main, 'Times New Roman', Times, serif">b</text>
  <path d="M 552.5 -70.1 C 555.5 -71 561.3 -76.3 570.2 -75.4 C 578.9 -74.5 596.6 -65.8 605.4 -64.9 C 614.2 -64 620.1 -69.3 623 -70.1" stroke="rgb(204 63 20)" fill="none" stroke-width="2.108758821496093" stroke-linecap="butt" stroke-linejoin="miter" />
  <text x="640.5" y="-70.1" fill="black" text-anchor="start" dominant-baseline="middle" xml:space="preserve" font-size="31.631382" font-family="KaTeX_Main, 'Times New Roman', Times, serif">c</text>
  <path d="M 552.5 -31.5 C 555.5 -32.4 561.3 -37.6 570.2 -36.8 C 578.9 -35.9 596.6 -27.1 605.4 -26.3 C 614.2 -25.4 620.1 -30.7 623 -31.5" stroke="rgb(110 204 20)" fill="none" stroke-width="2.108758821496093" stroke-linecap="butt" stroke-linejoin="miter" />
  <text x="640.5" y="-31.5" fill="black" text-anchor="start" dominant-baseline="middle" xml:space="preserve" font-size="31.631382" font-family="KaTeX_Main, 'Times New Roman', Times, serif">d</text>
  <path d="M 552.5 7.1 C 555.5 6.2 561.3 1 570.2 1.9 C 578.9 2.7 596.6 11.5 605.4 12.4 C 614.2 13.2 620.1 8 623 7.1" stroke="rgb(20 204 165)" fill="none" stroke-width="2.108758821496093" stroke-linecap="butt" stroke-linejoin="miter" />
  <text x="640.5" y="7.1" fill="black" text-anchor="start" dominant-baseline="middle" xml:space="preserve" font-size="31.631382" font-family="KaTeX_Main, 'Times New Roman', Times, serif">e</text>
  <path d="M 552.5 45.7 C 555.5 44.9 561.3 39.6 570.2 40.5 C 578.9 41.3 596.6 50.1 605.4 51 C 614.2 51.9 620.1 46.6 623 45.7" stroke="rgb(33 20 204)" fill="none" stroke-width="2.108758821496093" stroke-linecap="butt" stroke-linejoin="miter" />
  <text x="640.5" y="45.7" fill="black" text-anchor="start" dominant-baseline="middle" xml:space="preserve" font-size="31.631382" font-family="KaTeX_Main, 'Times New Roman', Times, serif">f</text>
  <path d="M 552.5 84.4 C 555.5 83.5 561.3 78.2 570.2 79.1 C 578.9 80 596.6 88.7 605.4 89.6 C 614.2 90.5 620.1 85.2 623 84.4" stroke="rgb(204 20 140)" fill="none" stroke-width="2.108758821496093" stroke-linecap="butt" stroke-linejoin="miter" />
  <text x="640.5" y="84.4" fill="black" text-anchor="start" dominant-baseline="middle" xml:space="preserve" font-size="31.631382" font-family="KaTeX_Main, 'Times New Roman', Times, serif">g</text>
  <path d="M 552.5 123 C 555.5 122.1 561.3 116.9 570.2 117.7 C 578.9 118.6 596.6 127.4 605.4 128.2 C 614.2 129.1 620.1 123.8 623 123" stroke="rgb(204 135 20)" fill="none" stroke-width="2.108758821496093" stroke-linecap="butt" stroke-linejoin="miter" />
  <text x="640.5" y="123" fill="black" text-anchor="start" dominant-baseline="middle" xml:space="preserve" font-size="31.631382" font-family="KaTeX_Main, 'Times New Roman', Times, serif">h</text>
</svg>
